<mxfile host="app.diagrams.net" modified="2023-08-18T19:40:43.961Z" agent="Mozilla/5.0 (Windows NT 10.0; Win64; x64) AppleWebKit/537.36 (KHTML, like Gecko) Chrome/115.0.0.0 Safari/537.36" etag="b0eh1FtUVLRVI86bgffU" version="21.6.8" type="github">
  <diagram name="第 1 页" id="AyC2CBewmgBvataIOaos">
    <mxGraphModel dx="1656" dy="1442" grid="1" gridSize="20" guides="0" tooltips="1" connect="1" arrows="1" fold="1" page="1" pageScale="1" pageWidth="350" pageHeight="500" math="0" shadow="0">
      <root>
        <mxCell id="0" />
        <mxCell id="1" parent="0" />
        <mxCell id="Z_vTWsY7vMFAYbMgy-K_-1" value="" style="shape=image;verticalLabelPosition=bottom;labelBackgroundColor=default;verticalAlign=top;aspect=fixed;imageAspect=0;image=data:image/jpeg,iVBORw0KGgoAAAANSUhEUgAABA0AAAGZCAYAAADissgfAAAAAXNSR0IArs4c6QAAAARnQU1BAACxjwv8YQUAAAAJcEhZcwAADsQAAA7EAZUrDhsAAOO1SURBVHhe7N0HfKRV1Qbwk957303bzW62d0DqUkSKFAFB0A9QiqKIiICAKL0jIE2qIKJYAKX33tv23jfZTTa99/7d58z7ZifJTDKTTNru8+c37GTKOzNvvffcc+/1e/LZV7vEha6uLlmx9CtZt2al7MzbLjVVldLZ2Wk9S0RERERERETjlb+/v8TExUtG9iSZOXueLNhnf+uZnvoEDexgwVuvvihVFeXWo0RERERERES0p4pLSJSjjz+pT/CgO2iAYAG89sJz8skHb+t9IiIiIiIiItp7HHL4UXL8KT+w/hLxx/8YMCAiIiIiIiIixARe/d+z3XECf/sOuiQwYEBERERERES0d0NsADECxAs00wDeeuVF6x4RERERERER7c0wziFo0GDFkq+kqpKDHhIRERERERGR6MQIyDbQ7gnr1q60HiYiIiIiIiIiElm3ZqUj02Dn9u36ABERERERERERIFagQYOa6kp9gIiIiIiIiIgIECvwl64u6ezstB4iIiIiIiIiIhKNFfg7JlwkIiIiIiIiIuqpe8pFIiIiIiIiIiJnDBoQERERERERkUs65SIRERERERERUW/MNCAiIiIiIiIilxg0ICIiIiIiIiKXdMpFIiIiIiIiIqLemGlARERERERERC4xaEBERERERERELvl3CbsnEBEREREREVFfzDQgIiIiIiIiIpcYNCAiIiIiIiIil/w5eQIRERERERERucIpF4mIiIiIiIjIJXZPICIiIiIiIiKXGDQgIiIiIiIiIpf8u9g9gYiIiIiIiIhcYKYBEREREREREbnEoAERERERERERueTfJeyeQERERERERER9+T309HNd1/32V9afY0ugn5/MDw+TrNAgiQsI0MeqOjokr7lNVjY2Sfsoj8cQGOAn87L9JSvZT+Ii/PSxqoYuyS/tkpV5ndLeMcoBGfP9/Ceb9ZYaIH6Rju/XVW++U3GHdG7rEBnt70dERERERERj2pgMGuwTES5nJcfL/pHh0urnL5GhQRIeGKTPNba3SX1zmwR3dcqX9Y3y99JKWdLQqM+NlEU5AXLWYUHyrdwAaevwk8gwfwkPdfT0aGjulPqmTgkO6JKvNnXI3z9sk6VbTQV9BPlPDRT/I8PEb4b5tyNAAsIDxS/MEXTpauqQjsY26QzolK717dL5bpN0bm7X54iIiIiIiIic+T30t+e6rrtibAQNEoMC5Zr0VFkUGSFpsVESER4q/n6uh13o7OqUhsZmKaquk6X1DXLjzmKpaB/eym9ClJ/84QchsmhyoExICpbI8ADx93e04PfW2dkl9Y0dsqusVZZua5ebn22RirphbtmP9pfA/4sQ/2lBEpwUIUERYeLn5vt1me/X1tAkrWUN0rmxTdqfaRCp7bSeJSIiIiIiIhpDQQNkF9yVPVHSYqIkLjrSetQzVbX1UlRTJ5flFcrSYco6WDQ5QP74kxANFsTHBFuPeqayplWDB799qkWWolvAMPCbGiiBF0RJcHK4hMR6t/5aquultbRR2h+tky5mHRAREREREZFlTMyegIDBnyenS3ZinNcBA8B78N6HzDIWmWX5GgIGD14QKtkTQr0OGADeM2limC4Dy/I1DRj8KkrCJsZ4HTAAvCcsPUaXgWURERERERERgX/XKA8miC4JyDBIiY+V8LBQ61Hv4b3JZhl3m2UlBPqu4osuCcgwSE0MlcjwwS83IixAUhJCdFlYps+gS8IFURKWbCr9ESHWg94LDA+RsCSzDLMsLJOIiIiIiIho1GuHGMMAXRKGEjCwRZhlYFnXZqRajwwdxjBAlwRU+ocKQQcsC8v0FYxhgC4JqPQPFYIOuiyzTCIiIiIiIqJRzTRAtwQMejiYLgnuYFlYpi+6KWCWBAx6OJguCe5gWVgmlj1UOkvCtKBBdUlwB8vCMrFsIiIiIiIi2ruNaqYBplXELAm+hmWebZY9VJhWEZkBvoZlYtlDhWkVMUuCr2GZWDYRERERERHt3fxFRifTINDPT/aPDNdpFX0Ny8Sy8RmDFRjgJ9/KDdBpFX0Ny8Sy8RmDZt7rNyNQp1X0NZ2q0Swbn0FERERERER7r1HLNJgfHiatfv7ib26+hmVi2fPMZwzWvGyzjA4/8ff3fcUZy2wzy8ZnDJb/5ADx7/AXv2H4flimf4dZ/jDM9EBERERERETjx6iNaZAVGiSR5jZcsOzsISw/K9lPIsOGL6aCZeMzBi01QALCh2/9BWCmCPMZREREREREtPcatUyDuIAACQ8cvkovlo3PGKy4CD+JCB2+1RNulo3PGCy/SD/x88GMDu5g2fgMIiIiIiIi2nuNWtCAiIiIiIiIiMY2/9GacbGqo0Ma29usv3wPy8ZnDFZVQ5c0Nndaf/leg1k2PmOwuuq7pKtp8L9vIFg2PoOIiIiIiIj2XqOWaZDX3Cb15jZcsOz8ISw/v7RL6puGL2iAZeMzBq24Qzoa260/fK+j0aw78xlERERERES09xq1oMHKxiYJ7uqUTnPzNSwTy15hPmOwVuZ1SlBAl3R2+r61HcsMNsvGZwxW57YO6QzokK5h+H5YZmeA2TbmM4iIiIiIiGjv5W+qiNbdkdXe1SVf1jdKQ2Oz9YjvYJlYNj5jsNo7uuSrTR1S3+j7ijOWiWXjMwbNvLdrfbu0NQw+MOIOloll4zOIiIiIiIho7zWqAyH+vbRSiqrrrL98B8vEsofq7x+2ya6yVusv38Eyseyh6ny3SVrLGqy/fAfLxLKJiIiIiIho7zaqQYMlDY2ytL5BqmrrrUeGDsvCMrHsoVq6tUOWbmuXyhrfBQ6wLCwTyx6qzs3t0rmxTVqqfbf+sCwsE8smIiIiIiKivZt/12hNn2C5qaBYimrqpLFp6N0UsAws68adxdYjQ3fzsy2aGVDvg0EHG5o6dFlYpq+0P9MgraWN0t4w9GW2N7Y4lmWWSURERERERDSqmQZQ3tYul+cVSmll9ZACBw3mvSVmGZeZZVW0+66VvKKuS377VIuUVLRopX+wEHQoLm/WZWGZPlPbKe2P1klTWY1W+gcLQYemUrMMsywsk4iIiIiIiGjUMw0AXQku3FYgeeVVg+qqgPfkm/diGUt90C2ht6XbOuSiR5tle2HToLoq4D15u5p1GViWr3Vtbpf2B+qkqaBmUF0V8J6mwhpdBpZFREREREREBAHHnHjK9Z+8/7b15+jZ1dYmr1bXykR/PwlpaZXgAH8JCgoQPz8/6xU9YVrF+sYmyS+rlE8qq+WX2wpka4vv0v57K6rqkleXtMuEOJFgvw4JDvKToEA/99+vs0vqGjpke2GzfLy2VX71eLNsLRnGFvzKTun8slW64rqkLaBZxHw3/6BAt98P0yq21TdJU2G1tK9okvYH68yP5BSLREREREREtJvfvY/9o+uWay63/hwb9okIl7OS4+WAyHBp8fOXyNAgCQ8M0uca29ukvrlNgrs6dVrFp0srhyW7oD+LcgLkrMOC5Fu5AdLa4SeRYf4SEero6dHY3Cn1TZ0SFOCYshGzJPhi0ENv+E8NFP8jw8Rvhvm3w18CwoPELyxAn+tq6pCOxnbpDOjQaRUxSwIHPSQiIiIiIiJXxmTQwBbo5yfzw8MkKzRI4gIcld6qjg7Ja26TlY1N0j7KXSsCA/xkXra/ZCX7SVyEo0W/qqFL8ku7ZGVep7R3jHLXD/P9/Ceb9ZYaIH6Rju/XVW++U3GHdKKbxGh/PyIiIiIiIhrT/P702N+7br3mt9afREREREREREQOoz57AhERERERERGNTQwaEBEREREREZFLY2LKRSIiIiIiIiIae5hpQEREREREREQuMWhARERERERERC6xewIRERERERERucRMAyIiIiIiIiJyiUEDIiIiIiIiInKJQQMiIiIiIiIicoljGhARERERERGRS8w0ICIiIiIiIiKXGDQgIiIiIiIiIpfYPYGIiIiIiIiIXGKmARERERERERG5xKABEREREREREbnkL+yeQEREREREREQuMNOAiIiIiIiIiFxi0ICIiIiIiIiIXPJn5wQiIiIiIiIicoWZBkRERERERETkEoMGREREREREROSSfxdnTyAiIiIiIiIiF5hpQEREREREREQuMWhARERERERERC75C7snEBEREREREZELHNOAiIiIiIiIiFxi9wQiIiIiIiIicolBAyIiIiIiIiJyiUEDIiIiIiIiInLJv0s4pgERERERERER9cVMAyIiIiIiIiJyiUEDIiIiIiIiInKJQQMiIiIiIiIicsmfQxoQERERERERkSvMNCAiIiIiIiIilxg0ICIiIiIiIiKX/Lu62D+BiIiIiIiIiPpipgERERERERERucSgARERERERERG5xKABEREREREREbnk38U5F4mIiIiIiIjIBWYaEBEREREREZFL/sLZE4iIiIiIiIjIBWYaEBEREREREZFLDBoQERERERERkUsMGhARERERERGRS/4c0oCIiIiIiIiIXGGmARERERERERG5xKABEREREREREbnEoAERERERERERueTfxUENiPYoySnJsmifhTJ/wQKJjY21HiUiIiIiIvKe3013P9R1/503Wn8S0Xi0cNEiOeecn0hOzmQJDAzUx9ra2uQvjz8hL7zwgv5NRERERETkrTHdPSEwwF9+9sNp8tbTx8jSV74nK18/uft237X7W6+i8SQiI0cOuu8VOezJT2S/W/8pIbGJ1jMj7+STT5bXXn9VXnzpBTn88MOtRz136mnf1/f/94X/ysGHHGw9OvKysrLk17/+lUybltsdMCAiIiIiIvKFMR00uPyns+WCH02X1MQwDSDQ+Ofn7y9+fqO/LVNTU+X4E4+XoKAgWblypXzwwQfWM5576613ZPv27RIVGSmnnHKKBAQEWM+MrAMPPFCSkpL0fmFBodx26+1y7DHfleO+ezyzDIiIiIiIaEjGbE184awEOebQdA0W1Na3ycP/WC8//8Nn3bf7/7bOeiWNJ12dndLV1Wn9NXqOO+67MjFtgjQ2NMh7775vPeqdutpa+fijT6StvV1b+U888UTrmZEVFxerGQbt5nu8/fY7GgDp6OiwniUiIiIiIho8f1ONs+6OLTOmxElkeJDef/X9HfLIPzfIF8tKu29b82v1ORpfGnZulc9+fYJ8eO4h8vXVP5KW6nLrmZGDLINDDjlY/AP8JT8/Xz777DPrGe+98eabsqtwl2YsHHbY4lHJNkhJTdF/Mahpc3Oz3iciIiIiIvKFMZtpkJIYZipi/tLW1ikFRY3Wo0RDt3jxYklKSdEMgc8++2JIrfLINlizarVW2LMnTZLDj/B+bAQiIiIiIqKxigMF0F4FmQAHHXSABAUGSk11jSxftsx6ZvC++PJLaWholLCwMNlvv/2sR4mIiIiIiMY/v5vu/nPX/XfeZP05ei49b478+PtTrL8G9uGXRfLrG7+0/nI4YGGy/PF3+0lURJDL5yEnK1r+fMMBkpYcLhu21sjpv+rZn93+HnUNbfLb276WiuoW+e3P5si86fESEhwg7R2dsqu4UZ54bpO8+Ha+9S73JqZGyLmn5crifVMlLjbYVFb9patLpN4sf82mKnn4nxtk5boK69W+s+B3D0nM1DlS/Onr0lJVJhOPPFUCQ8OlubxINv39bmks3iEzL7hOorJn6Ovr8tbLukdvMM8X6982/4BAiZ93gEw47CSJypwqgRHR4ocUfPMj2hvqpHrjCsl79Smpz99svaOvyKypMv+yeyUwMtp6xKGxeKesvPPiAbsoOL9/2/OPSsFb/5bME35ivtMJEhwVp69prauSXR++IjteeUo6O9r1MVdmz54t111/rcTExMiK5cvliiuusp4ZvKjoaLnnnrslKytTdhUWylVXXS3FxT3X43C64cbr5YADDuAUi0RERERE5HP+SKumvvz9/GTejAR59OaDZL+5SRowAAzMmDkxUq6+cJ6cfUr/QY7vfSdL/nnvYXLqsdmSnBiqAQMwi5aoyCANcjx4/QGy3/xkfXw4JM4/WDK/e6YEhkXoB4cmTZDcsy6TWT+/QaJzZmsAADfczz3r8j4zG0w75yqZfdGtEj97PwmKjnMEDMAsC5X4xEWLZeEfHpPsk87r897hgO8w59K7JPuEsyU4Ot6xMs0N9/HYtJ9c2e/3mDNnjkRERGh3gk2b3Qc6vIEuCjt37NT7CYmJMm/ePL0/0jo7O6WxkV15iIiIiIjId8ZM94R/vbK1x+wIdis+xjR44tmNPZ7DbbhnTwgO9pcffS9HgwUvvZMvv7ruC7n6riWaHYA4Cx4/4duZEhMVbL2jJwQMrrxgrsRGB5vKXJds3Foj9/51rX53LOvfr26T8qpmrfMO52ySAWERsuvDF2XZTT+T8qUfa4YAAgeRWdOk8L3/yvLbLpTarWv1tZEZORKemqH3nXV1dEjDrjzZ+cY/9fVLbjhXl5f/6tPSVlet2QiZx/5Qkg88ynpHT40F22X5nRfr+3Cry9tgPeO9lG99W2KmzJHKNV/Lyrsv1e9R8O7z0tnWosGD+AUHaYaFO1OnTtWZBlpbW01Fv8B6dOjyd+RLZ0enhISESE7OZOvRkREWGqr/YvaE8ooyvU9EREREROQLYyZoUFTa2GN2hJq6NusZkYqq1h7P4TbcsycgKyA02F8e+ed6ufZPy+Tjb4rltfd3yq+u/0K27nB89sSUCNl/vmN+fGfaJeEHuRIRHqjdGZ5/I09+dMmH8tfnNul3x7Jue2ilnHD+O/LGhwXS0jJ80+OhO8KO15+R2u3rtXLd3tSgj9cXbJGtzz0iNZtXS+H7/zWV7lYJjIiSyMyp+rytbNlH8tWVp8s3fzjLvP5hfT26ImB52//3uKx58PeOwEFQiEw45ASXrfzoLtBQsFXfh1tn2+5t6y1kFJR9/b6svvcKqVr7jX6PLf+8Twrf/a8GRILCoyR+7gHWq/tKTUvVf1vNdygpLdX7vlBcVCxt7Y7flTYhTf8dCVOnTJH0jEy9j5kTGuoc25eIiIiIiMgXxkzQYCzCWANP/2+L9ZdDZXWLfL3S0ZobGhogU7Jj9L6z7xw8USamhOv9dZuq5I5HVmnwoLfGpna55c8rZNla349pYGutrdIxDaClqlQ6muod9ytKpbPVMT0fsgg6W5rFLyBQgqJi9TFb+bJPpLmyxPqrr5rNq7rHMwiOiZfg2AS9P1xazHfJe+Up6erquT7LlnwobdZvi8rM1X97y8rKkuioKL3f1NAoVZWVet8XyivKtKUfEhIS9d/hgN+waJ+Fejv99B/IVb//nfm8eH1u06ZNsmHjRr1PRERERETkCwwa9GP9VtfZDJgCEt0mAvz9usc6cDZ3WpxmKrS1d8pHX5e4DBiMhs7WFumwWvk7mvv2fffzDxD/YEequztByEbImtrj1tHSZD0XLUHRPYMOvtZcWSZNpYXWX7shMNJWW633/UNc/wak8QcEOrYXBg1sanZ8b1+oqKiShgZHK39kZISkp0/U+7527nnnyG233aa3884/TzLS0zXD4MMPP5I/3XOv9SoiIiIiIiLfYNDADQQFSsoHV6lE9wRobumQtZur9P54FjV5psy/8gFZ/Oi7ctADr8s+1z3Z44bBEEdKc9ku6573IqIiJNTq/99kKtqlJb7rntDV2Wn+57jv7+cvAQGBjj9GAMZRSEpMkujonrNTEBERERERDZU/J08YPvWN7VJe6egCMF5lHPsjWXDl/RI7bb6OW0Cj67prr5ejvnO03jBd5MqVq8TPz09mzZ4pl/zmEgmwZ7cgIiIiIiLyAWYa+BimZPT3s/4Y52Jz50nmcWdqsACzE5R88bYsveF8+ei8Q+XDcw/pvpV8/pb1jrGtvKxCGuodXQgwtgHGB/CVKLO8kFBHUKW+vk4KCnw3M4M7K5Yvl7vvuluKdjmyLzIy0mXGjBl6n4iIiIiIyBcYNPAxjF/QaWVvRIYHSmJ8/2MEjGVJ+x6usxF0tbfJln/eL+sfv0nq8jf2GYQwINQx6ONYhzEMMJaB8sMYDr7b/UNCg3UqR2jv6JAOcxsJxcXFstMKUODz8T2IiIiIiIh8xdSa9sz+Cf4Brpv7E+JCJSI8yPpreBQWO1qzQ0MCZNbUOL0/HkVkTNF/W2sqpGr9Ur3fGwZODElItv4a2zCGQVmZYxyDyIgISUnuO13mYGVmZElwsKPCvnPn8GcZOOvEeAoGggaJCb77TURERERERHtUpgHGD8A4ApCaEKZdBXrDzAZhocPb73vVxiqdOQEzKBy6X4rL7zEe+PkN/L3jZu0r4amZ1l+eaatzzHKAmRgCo/pOWTmc8vLy9d/gkBCZPDlH7/tCWlqqBAUF6bSLO/J3WI+OLH9/fwkPHx9ZH0REREREND7sUUGD7Tvrpa6uVe9jBoPvHNJz2rsZObFyytFZWpkfTu98WiiFJY4pDWfmxsmVP5/rMnCAx848KUe/11jUWOyo/AbHJEjcjEV631loYqrknPZzCQgJ07/9g4MlLGngqQbt5QaER0rMlLl6f6Rs3bpNWlpatFU+M8u7YEd/pk7N1X8x7eLq1av1PhERERER0Xi3RwUNMJ7AyvWVghkhIsID5SpTWf/NebPlgIXJ8tMzpskD1+8vyQlhOhXicEL3hCef3SQNje0aGDj12Gx57qEj5JzTcvW7LN43VS49b4689PiR8vMfzZDYmLHZD71i+SfS0dwofoFBknPGRTLlhxdL9KQZept0yk9l0TWPa5ZBV6e1PgMCNXtgIJWrvpC2xjrxN6+fdNK5MuGIkyQya2r3zZNlDNbyFculvKxc70+ZMkWifDBN4fRp0yQ1LUXv7yoslPXr1+t9IiIiIiKi8W6PChrAv17dJoUljjEFYqOD5SffnyqP3HyQXHT2TImLDZHn39gueQX1+vxweumdfLnvqbVSU98m/v5+MjkjSi45Z5Z+lwduOEB+/P0pkp4aoQPyjVXlKz6TXR++KF0dHZpNkP6d02ThNY/pLev4syUoKlbaGuqk8L3/SWdrswYBQj3INKjetFIK33lOl4tl5J55mexz3ZPdt7RDv2e90vcwrsGK5Sukq6tLkhITZMH8+dYzgzd33jyJjomRzo5OWbVq9YgNgkhERERERDTc9rigwdb8WvnVdV/IVyvLpKXVUXlDBsKOwnq56YEVcvsjq6TDnt5gmP3n1W3yw4s/kOffyJPS8mYd5wCQCVFX3yZfLS+VP9y9VL5Y5hicbyza+uzDsubBq6Vh5xZTKXaMFwGYQaEub4Os+tPlUvDOs9JaW6WPR2XlejQWQv7Lf5PNz9wjzWW7+szGMNw++uQTqautk/CICFm4aKH16ODts89CCQoMlMqqKvn4o4+tR0dOYYFjysUA/wCJjx+/A28SEREREdHY43f9nfd3/fnuW60/ifYOt956q+yz7yLtTnDVVVfr1IWDMX/BAvnD76+WqOgoef3V1+W++++3nhk5J598spz/0/N0IMaqykp5++13ZMXKFdLR0SV527dLdbVj4EkiIiIiIiJv7XGZBkSeeOWVV6S2rk5SU9PkuOO+az3qve9+91iJjomWSlNZf+e996xHR9YHH3wg27Zt1/tx8fFy+hmny2233Sa33HKTHH744fo4ERERERHRYDBoQHulL774QpZ88434+fvJgQcfJKmpqdYznps/b57Mnz9PxzD44IOPZN3atdYzIwuZBLfcfIu8+eZbUlVVpdM+EhERERER+QK7J9BeKzMzU44+5igJCgySL7/6WpYtXWo945kjjjhCZsycLvV1DfLSSy+xGwAREREREe1xGDQgIiIiIiIiIpfYPYGIiIiIiIiIXGLQgIiIiIiIiIhcYtCAiIiIiIiIiFzy7+rqsu4SEREREREREe3GTAMiIiIiIiIicolBAyIiIiIiIiJyiUEDIiIiIiIiInKJQQMiIiIiIiIicolBAxpxgYGBMmHKDAmPjrEe8Y5/QKAuw5cSJ2ZJZFyCiJ+f9QiNF37+/pI6aeqg9yebf0CAWU7ugPsBXhefOkGCgkOsR4iIiIiI9lwMGtCICwqLkNikZMmcOV8iYuKsRz0XHBomUxbuL2k5uRIQGGQ9OjRYZtbMeZI4IYOBg1EWGo79I9Xj7RAcEioxSSmSMX2ORMbEW496r6uzU4JCQiQjd5aER0Vbj/bV2dEhTQ0NMmnuIolKSLIeJSIiIiLaMwUc9p1jr//mi0+tP2k8CYuKkamm8pySlSOtTQ3S0thgPeO5pIxJMtlUfmKT06S2osxUiNqtZ4ZP4sQMUymLleaGOv27tblRK2IeM5XJGFOpbKqrlfqqCuvB/mFdSVeXdHa6/pyo+ETpbG+X4rwtWnn0RMKEDMmZt68kZ07W9djSWC8tTY3Ws7sFBAZK1qx5km4qo3gtvntteanb7zIUaHWPSUiW9KkzNKiCfQPfDS3jYRFR+pr2ttb+f6NZv1gfE6ZMN7dpuoyECZkSHhkjba3N0tbSYr2wr1DzGdgnUydNkQ6zPrGNvIX3xaWkSbT5DvU11brd+hNnfhuCBfnrVkljrXm9Kx4GILAcHEeVxYXWI661t7ZIYHCw/s4G8x3bWpqtZ4iIiIiI9iz+0n95nMYoP1MJQkUQFdKG2iqpr660nvEcWmhjk1P1PipJI1HxwWdGxSdJbWWZ5K1ZIY111TLZVLzTc2dLcFi49aoBWJVIVC6dYZ2g5Tdt8tQet/SpM2XSnAUy0VSksb7c6XJxMCDYEBgUbP3lnn62qeTi396CQ8NNhd19y7WvhIRHahAjY/ps/d7+/gH6OL5TELa1qYhnzpwr6dNma4q9K1g/CDgg6yIyJq57GXg8OjHJrMdF2hUAwYnh0mW2b2VRoW7L1OzJ/X5WQFCQZhnUmf3JDkL1YH57QlqGZE2f0++2H4yaslJpqq2R1uYm6xEHBE4QGBvOdURERERENFICDjvy2Ou/+ZKZBuNNiKlgJ2flSEBAoJTtzDOV7xrrGc9FJyZLXMoEaWttkdK8raYS3mY9M3zwmegzXrhlg7bWosJVW1Yisabil5o9RSu4jWid7qd1GRVefO+m+to+LdkIfNRXV5tKZLnUV1XqLSg0VCKiYqV4+xZpaWqQsMhoHcMgKj5eosx3wS0yNl4CQ0I0qBEZ53g8NjFVW5IjYmLN8ir6ZAaEm4o5XodWe2RKoAJbV1EmHb2yNRCYQas5Wvjx3bGeq0uKfJppgP71mdPnSmhkpAZTKnftkF3bNkpp/nYp37XTrJMKDQCgG0arWUfIdEDl3BnWPfap+LR0/bvGvGbnhtVStmO71JjfhW4DwWZdhkVFm23Xquu/t0DzPeKS0/R3IgtkMJkGgIyXEPN52M4N1VW6ryBIhnVpbzPc8Fno4tLW3Gy+V1SP53CLN+9PMBV4LAvrqKGmqt8sCwR+oK6qXP+FILPOkjOyzXM9lx0WGWXWdYeER0d3PxYdnywpWZMlKiFZ36vH5QCZEkREREREYxmDBuNUUoap9JpKSlNDnZTkb/U4pd6GCm5azjStSFUVF0qNqbgPN4w/gJZ/tCKjUm9DhRuVtJCIKK0kOldIo03lq8tUrp0r4v0FDbSC5lRJQxAAv7O6rFiqSnbpY6i8I43dObAQGh6plehdWzZ0P44KH4IcFbvyHYGMXuygAQIfyJgIj47V5Tp3UUDrdpKpcKLVGctFwGI4ggbJmZP0u3a0tUn+uhVSVVqs6xGfgfWL74ggAD4X3wWt8r2DBvhuaZNzxd88j9cWbl6nlXUsA/8i0IDBBhF4QFZIvfk9vQMkvgoaAPYXVNSrzW9BMKilqUmXV6vbp8Ks6xrt6oHfsnPTWg3s2NvTvuF3lO3cLqU7tmv3m4GOE+egAY6NuJSJGmhoaajX/aG5sUG/j2P5Ffo63Mf3aqqv0+OovHCHfibex4ABEREREY13zJ8dh5Bqjso0oJKCiqK3kHqOijJapZFmPRJQIWszFfbqsiLrkd3wPYpMhb2loUFbjJFWDsGhITJ10QE65sJgxOB9XZ1SuavAesQwFTlvxlBoN+sXrdloxXenrqJcl4uMBWd214Sm2to+aey+gpkkwq0BJRGYQOXVHWSVVOza6fL3xyQmaZADrfwVu3b0eQ0CBHgvgg3IdIno9Vt9DZV0BHHsLBp8LwR87Ip4eGS0dsPAtvU2aAYInmDgS+euLMgqwQ3jQWCgQzyGbJP29jbdD9DVARkP9v5pw/6BsRzwPLslEBEREdGehKXbcQh9uNHaixZtpPZ7CxXDuLSJmo5eW1Hqui+4j6EFGiPil+7YpgECV1ChLdi0RqqKCrsrhvinqa5O6ivL9G9voGIbn5ImZQU7dNlIM0cF0LmSaN9QUUQKO7pI2I8hVR/jGSSnT9aBDCfNWiiRsQnW0ntqaqiX5qYGrbzjt9oiYuN0faNF2lXFFpkQCIrMPvjb+t36g+2FGQLw2slz9umedtJPp6B0zCKBzJPeGQSewHcMi47V+81mv2p1M6gmAhL22BcR5vX4TsOl1XwPtOrb+4IzVMzjTQW9obpCGutrNSsBY1ag64un3wnbo7Jkl3ZbKdq2WW8Y1BC3oq2bZNOSz2XNp+/pfbwWN2SrpJh9JCHV0YUD8HkIiGG94XgaTACDiIiIiGisYtBgnLEHfgMM/ob+6d7CKPro44/KTY2plA2mkukt7ZteWyXNDa4ro+gfjso20r9RCXTW0dkunYP4jhj4D+sH4wxAW3OTlORv764gOt9QUcSo+Zg9wX6sNH+rtmyXFmyTdZ9/KOu/+ljHBnAFXQ4aqis1UBEa4chIQEUc4yMgYOFuVH/n59Byj+3rDoIe6B4AtVVl0u4i+ILPH4yAoGANREGr2UYdbjIx8DtbmxwZE8gI8bcCFyMNsxyEx8btzjLwQ3cRR/cKZB94CtkU3uz/zY31ZjtXS3zahO5thfWGbJJdW9br9iQiIiIi2pMwaDDORMcnaaUflZOqYkcffW/YLbT4F33AG6zU7+GESlxMYrJ2McieOb+7Jd++6ewGcxfpqP/OrfRDgRHs0d+9rCC/R797jI/grZCwCOteP0zFs96sT/yLQQ+hR9cEN8EdVFg1cGMqvugugnEF3EHLPvrZozsK+tHbupC2byrzEJOYoqny3kJLfUCAY6YEBGncVaTxPe316Y/3WBkOwwXjNPSeVQODfyamZ3ZnGQC+V2tLi1QWFbgN0PgCPgfBrzqz/jFFJ2A2EGQgNNfX69+A4xRdH9hVgYiIiIjGO5ZoxxFUluwpEjEI22D6yKMyjZR5VAoxtoC20g4jfOckU8Er2rpRvy/S9J1b+LVFvyBPuyw01dVoS/ZQIV08YUK6NNZUOQajM9Dqb6fTo5tE78BFf90TPNXU2LOLwkBdE2zoHoL34rshuOIqvR6Vz6g4RzBCsyLM59iQcYBBCgGt39mzF2h3ClRc7S4MAwkIDBB/s63AziRwBfuNPYaGv59/95SMvoDvikEj7fWPYFJ67kyZPHeRDjKpzLqJS50gmMFhoLEMsM5SJ+XqOAODge2A8Qvs72PfgsPC9Dl0J5mQM00zf0LCw7uf1+89fZakTJpq9kMGDoiIiIhofGNpdhxBJRSVJ51Sr3iX29Zgd+xKECqyaI3FVHbDCZWlhPQsqSzapX3t3UHFExXQtpaWIQcxUPHNmDZbsxoQsEjNztGKXOb0OZI9Z6GOhl9TUSrFedt6BC5cdU8oyd+igRXnmR76g8q03UUBQYiBuibYnCv92L7IJugN2Q5YJtRW9p0FADNgVJc6BpjEdkaAIXPmXJm+/6Eyw9zQ3x8DB6LS7TNYlJ/vurZgPSAQULojT9c/tgX2iXqzTu3ZNDBGBcYUwDGAyrpdUUewB0EfZCbYj2XPnCeJEzNM5T1Hu8d4C/tlh1nPmHnB3if0tnVTd7eG4rytsnXF17Jr68bu5ws2r9PuLGs/e1/KC/KHPTBHRERERDScGDQYJ1ABj01K0wohKvuDGbwQfa8xUBxggLne0+X5GtLk6zElnZtxAHpzbj0fLIywj4oaprzbsXFNd0UOrf2tZvl15rugEudJNwUEAVBB9Cajw+6ikJieNWDXBGfYpqgI65gILrooIACBLAIMfokMit7w3oLN6yV//Sqzb+xOkwcEiVBpnjx/X5k0a77PuoCga4I3mRiewD7ZO9uks91U0K2KN6aSRJeTwk3re1TUEWBA0AfBF/ux7WuW60CGqMDb0216IiQsTDMcEjOydFYMrFtn2A6R8QnaLcEev4KIiIiIaE/FoME4EREVYyopCVp5qizaOajWS6R1oxUbrf5orR5u9lz6A0JrtQ8bwNHPHa3DzusoODRCmhsbpd2LgSOj4hK0su4Nu4sCxp3wpGuCzTHAniMYgBZ0BIdsWI79PZC14Hawva4uHfRxy/KvZMNXn8jODauluqTIMU2hBYMtouuCLwIH+F1dHSPbio7PxACVngaiPOXnH6DrHevZz6zvsp15UpK3VYNQvaGbS0h4pH6P4Rw/gYiIiIhoLPDvEt+lF9Pw0CyDlDT9t6Guut9Uf3eCQkIlOiFZ79eUlXT3Sx8L0FqNVHCfVkCdKt3+AQESFBoqLdZ682RMA/RLz5gxRzJyZ7udZtEVu4sCeNI1wYbKsB3IwQwJ9kwGEBwWoV0L8BpPZ7tAoKCmvFRT5RFA2LLsy+4ADgIa9tgYQ4EUfXezLIxJvbpm4HjCjAvoujFj/0MkKT1bsxqa6+o0o8MVO+MH27iuyn3gAkGZCVNmuOxqQkREREQ0njDTYBzAqPpIhUZlsaqosE+6tCfQioqKKFLtETQYbWjZtUXGxutvsmcA6A3f25sB93TmBCtAAhjnAMtoqq/XdejJmAZ2v/T+pll0p7qsWCp27ZDygh1eTYmJbgeorKKiaXcjgZiERP0NmsUwiIARYCpLZB60mGUApixEMMXWYSrLdqs6BvpzBxkQ9lSDWJddXSObaTAYqOgnZ06WtElT9L4NgxdmzJirQSRsq60rv5FGazYRvA6zH/QOLk3MmS6R8Y6sj5Qss8xez9u3rJnzdPyQdB/OCEJERERENBoYNBgHYpKSNUUdKez1LvqzDwSVPAQNoNZUmNu8qMgOF6R4T124v0zf7xBJnJglzU310u4i7b5X47BHWpsbJSQiUgdCBGRZQIt5HDStfhBTL3oKU+8h8IDAAT7LU86ZCVEJibrNse0irAAC+utjsMDBwvIbah0DCiLzwjkQg3EE7KyBAP/AHt0jnKEyba/XjvbWHl0fhpO7Srx9czUQon3DgIjJmZMkYUKmDoxpBw6wnQo2rZO8dSuldMe2HtsK9yuKd+lAh3ZgqXj7Fp2OEgEmBGDsx3GrLCo0n51i1ke7/o3BETGewvZVS13u10RERERE4wWDBmMcBsaLSXKkkmNk+cF0K8DUe0hJR6WxylSExgK03uetWW4qVK3a3WLXlo2abYAKHX7zbv5SUbjDq0EbkTbf1tzUPQ4AUtCRYTHYyhvGNsD0i3Zlc7hoFgS6H5gKKwZRDA4Nl7DwSAkNi9B145PZLtx0begwlX97wMfgiAgJcMpCcIbBD+1MBIwR0TmEIIY3sE4qS3ZJWe+ZDKybq4EQ7Zs9ICJu+Ns5OIBuBnZ3kt4QWHJ+bXhUjHbxwXgZ2MecofsQtl9t+ehn8RARERER+RKDBmMcWi+Rro60dXeVm/6gVdjuv46BCb2ZCWC4IYiRv26FbFu5RFqtPuT4vuiKYSsvzJfK4sIelTdPICiB7Aqd/jA6ThpqqiQ4JFTn1u/dEo1b7zEN7BtG0U+fNluS0rNGZM59dD9ANwRkGWDgS7Sc4zN1xgyra8Fg2WM7ADIEnLsWICjRZGU5hJp1FmzWhSthkVHdmRvIikBFeaSgoj6UTIuhwLpLzMjWaS2brC4MNjuwV1NW7HYsBCIiIiKi8YpBgzEMlVy7wo8pEr3pH2+LiI3Tuf9RKaws3jWilTxPIHDQOyDgi4o55vdHGnnalOkSEhEh9VWV2q+/z5z71q33mAb2Denr67/8aMTm3EelGK3lED8hs3v79zcLAyq0aTm52uWjv/4cmDkBwRFAgAD7hLOa8jJ9DOMnIJXfecwDQEBHAyfmM7AvIgi1t8AxhEwDPz9/vY+gDmBfTcrIlq4Oc3ztKtDHiIiIiIj2JAwajGGo5KEVExXrwaQ9o0KDkd5RydOW6kEOojeS0IcfA9T1rrAOBqYbRBUaFWGk30PvtPKxCAEOdEMJNBVTVOCRHVI/QJYJujJMmrtIchfuL4kTMyU0MlJnpcANwYT03NmSOW22jmOACn+VWTe9Yf+oKnF0X4lJTJaJU2dq9gWWEWYqzFmz5ktETJw+X1G4c8BWdUxLGB2fOODN1UCB2O/Tp8/SKTIR9NGASD/8zT6u+06Y6wyJoUKABINiIuslPDJKJs1ZJNO/dYhMmr1Qs0GK87fpcUpEREREtKdh0GCMQgUofkK63h9s2nOEqeghxR0t1JVFO4e9ldwT/TSEK1SSwyKj+5+qbqCFWPytSjdahXPm72sqd0kev3c0tTQ1aOaDDV0r+huPAckjdgZJsKlsp06aKlPmf0srtVqxnbtIYpNTNIiEgEHBxjUu9ycso2zndk3BBwQOdLBKs4ycefvoVJBQYfalyuKBW9Uxe0DmzHkD3kIjdlf08R0T0jJk0rx9pa6iQravXSE71q3UMQPQtQTb0yW/3QM0DhuzftCNpnzXTtmy/Csp3r5ZQqOiNRCTPnWGjnsRFMKZEoiIiIhozxJw6JHHXL/ky0+tP2msQAtsfFq6toyX5G31ehA/VL4wYjwq4A21VVJhKjqjHTTAWAVRcfHS0dYuIaFh2prc+xaXnKZTMCLTwE5/x4CG8aYiiUorAgHxpgKJ1yBlv6nedfYEAgWoZJbvzJOSHdu11T41e6qm+/uZ/7A+nbMOosz6DgkNlZrSElM39Gw9IV0dgyRi5gFkNXQOMCODx683lVNsv+gExzSbZeY3oOuEW+Y1tRVlppKN7gVtOogh1hNS6QGZFo111WY/cnS9wCCR7mAfqa3Eeq3VDIDA4ODu5QC6TuzautHtvoT3YBt6kymCKSqRTYFpONOnzpTE9CypKi6QsoJ8/W34rPrqKj0m0nNn6ZgKmB4S26+7u40fxliocQQ87Md6wXfCQI79bd8os84B+5Y7emxlTNLxLzBI544Nq/S7IMMDM4Eg4NXcUN9j/yIiIiIiGq/8rr393q6H/3S79SeNBajwZsyYo3PpoxJUuGWD1xV+BAuyZy/QihJalmusfvKjSdPkpzkqfe6ggosgB2ZTcA6UoAUX/ewT0tK10oZK5vbVy1xOH4nKZ3JGtlb8UJG0ISiRkpWjAQIsA5X2tuZmnZs/JDRCWpobtDLqzM8vQMLQmmzWY2BQkFZwS/O3a+V8OGFqwMT0bB2HwTHLxOilvmNdJZnvgr77gKkHkW3grnI+FJopYbZR0fZNOi5FbwgcYRtiXAHnaSGx37ia/hFZAHbrP7p8YLkYu8GechMV/JRJUyTAvK6ttVWzK3Cs7Nq6QZ/vwXwesnfScqbpn3iN8/6FLAjH1I4ZOqsEpmUczBSpRERERERjCYMGY1BkTJz2H4f8tSsGVfFAKztaPTGdISqdg5mqcSyKikuU+AkTpWjrJpczQSDggkpbdVlJ94wMveE1mFEhMj7R/BujMwqgctkftGgXb9vsqCwPM3RNQcAH02Ri9ghU0kcbAgcIZCBwM5Lrwh1sQwRzcKygi0BQsCMQhccxBkNvCLr1dyxFxiVIRu4s8Qvwlx3rTWXfaZBHbI/YxFRJTM/U4ETJjm36vLtAHmbtmDh1htRVVmjArjsbgoiIiIhoHGLQYKzx83P06TcVlQ5TKdFp7bzMMrArVP5+/tpai8DB3gCp8Uj/R8DAbkn2iln36Bfv3IKNCl8Hsg9GsOIXlzJBK52ooCLgg64CYwEyONIm5+pYBdgn0dXBk7ENxgtU9tvb2nRqUwz4iABVSES4Bqcaa6o14OBp8C0mMUXCY2I0uMKgARERERGNZwwaEI0ytOKj+wPGWkBldULONG3drikv0SkfvQ0aDScEDtDNxN/fTyvDjXW1w95Vg4iIiIiIRo8/W8GIRhemCcxdeIDOUpAxfbYGDDB9X1lB3pgKGAAyOOqrK3SwxLqqCgYMiIiIiIj2cJxykWgMweCMGIhv+6ql0lxfbz1KREREREQ0Ohg0IBplzQ11sv6rj2XNp+/Jus8/1FH3XQ3ySERERERENNIYNCAiIiIiIiIilxg0ICIiIiIiIiKXGDQgIiIiIiIiIpcYNCAiIiIiIiIilxg0ICIiIiIiIiKXGDQgIiIiIiIiIpf8pavLuktEREREREREtBszDYiIiIiIiIjIJQYNiIiIiIiIiMglv2tuvafrkfvutP6k8WTG+X+QlAOPls62Ftn45O1S8tW71jNE45d/cKh0tjZbf9FY4B8QKF2dndLV1Wk9Mj6lfOtImXbuVeac2SZrHrpGqtctsZ4hoj3NpJPPl8zjzpTmsiJZefdvpLm82Hpmz2ef6/yDQqxHdtv2/KOy4/V/WH8REXmGQYNxjEGD8cvedo3FO2XlnRdLS3W5ZH73TJl86gXSXl8rK+6+ROrzN1uv3jvEz/mWZJ/wY1Mx7ZLlt/3SenTkhMQmSvK3vi2JCw+VyMwpEhASpo/XbF5tvs+Fet8dVKqT9j/SFNS+I1FZuRIYGS1+fhgyplNaqyulau3Xkvfik9JcWWK9o6/w1AxJO+R4icmdJ2Ep6RIYFil+AQGCcWfamurN/rBJCt5+VipXfTlilffIrKmm4P1TCY1PllX3XK776XgVGBEt86+4TyIzpkjJ52/J+r/cbD0zsPDUTEne/zuSMO8AiUjP0e0NnixnqPvGgt89JDFT51h/eWa4KwVRk2dKzmm/kOjJM7RSYv+Wok9ekx2vPCWdHe3WK4cP1mHaocdLxjE/ktCEVD1W8LlNu/Jk2/8el4qVn1uvHF5D2TeGCusgbtY+jn0rZ6YExyRIYGg4npCujg5pra3S/Qv7Aq41ruj+uc9hkrjoUInKniZBkbESEOo492F9tlaVSdk3H8jOd54127hCH3fHV9sEx2qWqewnm98VHB2ny8E+1tFQL3U7N5t97Gmp2rDMerV7OKfPu+J+CTfn08IPXpDN//iT9czQTDj0RJn6f5eY7xUoO9/8l2x97mHrmbHDl0EDXJtQPombtV+P7YFjvmL5p7LthcelvaHWevWerXufMuvE+Ri3z9OelBeIxquAQ7999PVLvvrM+pPGk6SFi7UA3NXZoSfuhsJt1jM01tnbrq2+Vko+e0M6mhvNBWeuxM3cRzpbW6T4izeltabSevWeDxfimT+/wVTWp0pLZakUf/qa9czImHfZPTL1zN9I/OxvmcJuivgHBlnPyIDfBxWFRdf+RVIPPEbCkidKQEioKTz76XP4NzAsXH9X2uLjpaOpUeq2r9fneptyxsUy4YiTJcRU0AOCzTL8rd5jZhkBpuAXljRBC4JRk6br8d7VT8UMhXdUYnLPvkym/Ohiyfn+BZJ90rmm4Pd/krzv4VqZaNJKRP8D4c668GazTy6S9saG7v10vJp4xEmSYip37U0Nsu3Zh6S5wn0AxxYcHS8Lrn5IJp3yU4mdNl/30+7tYjTs3Crlyz62/urLF/tG2iHH6T7pqY6WJtn10ctm++6wHvGtjGN/JDPOv9r8nnStNIH9W7CO4ufubyqq35h9pl6fGw4I6M266BbJ+M4PTCU3unub4N/gmHizjx8hIXGJGmAbaB8frKHuG74QEpug500co0GRMaaCGKznC8B3cd6/UHmv3bJan3MWkZkjsy64QQMGgeFRPc59ugzzGCpDqQcfJ81lu6RxV571bE++2iYJcw8w5+O7zbl4P/3+3csxv8s/2HEexPnNk3WL8xU+OxaB2MQ0rdC1VJVazw4OMuGmmnNqSEKqOYcUy+Zn/jSs+/pgNZcXSdnSj6To45fN+eAlPR/ETlugFf6qdUvNulhlvbJ/M352reSeeZlj/+i1PfA3rkcp3/q22bfWjOugsqcQlEs96Fg93pyPcfs8PRrlF6KRsvsKR0S0l0JB0C5sA7pHeNqa7xfgbyr1prBuoEJa+vW7svqBq2XJDefqv9UbV+iyAkxhY/JpP9fCszttjXVSuQYtz3/R1gosY9lNP5P8V5+Wtrpq/Y4oVOee/VstOLsSlpIhC695VOZcfLvEzTCVCVPot38bWp0iMqbIrF/eJDMuuKY7m2JPh5bLNFPp8fMPkPrtG7Ty4AkUkHu01HV1ObrOeDjrkC/2jfWP36Sv7++29qFrpK2+Rl/faCoHqLQPh9iZ+0jWcWfpOkGGW8G7z+v+ic9vKNiqr4nKni65Z13udv/0hewTfyIJc/bX/brZFNI3/e2Puh7yXnxC2hrqtGKErJ2JR37feofvDXXf8J0uaTGV15LP3pRN/7i7e59YefelUrbkQw0W4HtOOulcSTnoGOs9PXV2tut+s+v9F3vsb877aFBElNmul2pw2xVfbBMEJ9A6jowJfCY+2/4+2M/QQl67fb35TW3WOwZW/OnrpiJXIkHRcaay5/r3eyNu1r4SPnGS3se5eqx2eUDwEJVaZCzi5miE8H7ftDNGcP0pfO+/3delrf95ULczIIAy+fRfOq6jRLTHYqbBOMZMg/GLmQY9OUfvRyNSj8p1U8lO2fHa32XTU3dI2bKPJGWfI7Rla6DvExybIHFzviWF7zwnax/4nZR+84G26mD74d9is32RAowCMVoC0RpR8uW7fTIFUADd8crfpOSLt01heaV+LpaB1pvq9cukYvWXkjjvAAkMjzSFtGRtNezdWh49aYbM/fXtEj4hW/9uMJ9f8NZ/ZPt/H5PCD1/Q3xhiPj84MlYiJk7WZTla/lyzW0+c99PxKHm/I3T/MrUjyTfbuH6HZ11/kPERkzNT6rat10DORlMRwjZFFgda2QdqTfbFvoFWTLy+vxvOJwgmASpJVWZf8jUEAaadfZnZbyZp6juOlW3PP6L7J1qfS79+X7sYoWU3JD5JmksLh+WaFJGRIzk/uFADLa21lbLu4WvNNvhE1wMqmU1FeWb7HKjHbmjSBClf+tGw7LdD3Td8obOlWYo+fEl2mmO8fPknUrd9Q/c+gawAdCtoNxX2eHNd0f0rNrHP/tVWayqDZv9EAKhi1Rca/LGXgd+DFOyA0AjzW2dpkDEwLEKX68wX2wTLnvnz6yU8JUMrvNuefVg2/f3u7u+D/Qyt40Ufv6It5f1lWjnD78e1NcKcE4NjkOnwuZ7PBgPHwNQf/VrC07LMd6qQzf+6z6y/KuvZsS0yfbIkLjhY901vMg2QmVa25ANZc99V2r3Evi7Vbl2ry0mcf7BmHKA7Xc2mVZp9sSdjpgHtzZhpQER7vfWP36itpaiwo1XMG40F22XZjT/VbAC06rmCyiH6BkNoaoZEWi1VzgYa/LGxcLtUWy3kKGCHp2XqfRvSo6ed/3tt9UGBfPMz98o3vz9T+66idQ6tTahcLL32J1pxgKRFh2qBf0+Ggj66JfgFBjkCMBuXW88MDBUgtLauf+IWKV/xmVZmvOGrfaM/aN1LnH+QtvBi7IvhCBgAAhuRk6brfVQmC979r963oU8zxtzoam/Tlu2kfjJqhgLZGOgaAKiY9s4awXZCAA5Ck9K0Ej8chrpv+AJa493tVzYEE+zgogZ0YhP0vm2gZeD5sq/f030LsE57tyj7YptgXIXIdHMu6urSYwJBDHe8HSgXQQpkxgTHxGnwYrBiZiyUqEkz9D5+IyqNe7o1f/6DbPvvYy73EQR07C5V/kFBffYtItqzMGgwxuECt+8Nf5XFj38ghz35iRzy8Nsy++LbJDTe8z6uaP1ZcNWf5ZCH3tZl4Hbo4x/KAXe/ILMuvEmic2Zbr+wJlZD9bv2nvh4D96HwPeGwE2X/O/4jhz7xkT5+0IOvS+6Pf6vpvyMlNjZWbr7lJnnjzdfl+f89LyeeeKL1zN4DA9QdfP9rctgTH0vGMT/Ux+ztbO8r2EbYxpO//7M+hTybq33j4AffkDmX3Kmf4YnBLMN538LtgHte0IGFAJUT+3HnG/bBgWAAw31v/rv+9oXXPCahianWM8MHhamBKgxNpYXSXOmoGCJdHf3bB6XTfZeJzOPPkojUTP0uaKErfP9/1jM94fvmv/JXbRFCQT9+1n7WM47BnJzXObYFYNtgGzk/hxte3x+tsB90jG4L5/1j8aPv6mOJCxfra3rDoFt43YHmMyPSsrR/8743PqXnLTyO/cvT8yC+O1rHoX7HlhFNJx6JfSNu+oLuzBJvul54CwN0BoVF6n0MQocgAY5jXJ+yjj9bH0frJVpgAes8JC5J7/sK9pXY3PkaIEFgrMJURgGV1m/d9i/NtAEM/od1r1kc0xboY2MdflvOD35hjo339Dpvn9eHzFTCMbjsUKD7gl+n62X4apskLjhEA3vIDCj+9A3rUd9A0BQZAeiehHFrXJ1zPDHxsO9pdha6kRX2E9SwDbbsZcP3RJnrW7f/u/vc51zmmnzqzx3nQ1MW8PR67a3+AjT4fmhxV+ieY7YvEe25GDQYw9BHEAMLoQ8yLrSAFkakg829/B5NCRsICiFzLr7DFPjmij0iMqCPGgYlQnR/+nlXa+GvP/isaedcKVPPukzTC+2LLvpLYyTh2RfdPGL9o4866ihZsHChBJjfEB0VJWf88AyZOmWK9exexhTUUBDCvjL74tt1O9v7CrYRtnHiosPMdnIU9m14Lvfsy13uGygUIdV54dUP66Bn7vhiGb6WdfyPNQ0V3w2F1ZwfjPwsDMMFAZDonFl6HxXRxqLdA90hWwBZA4BWOmRM9AcjqaMCjf1HW/eGAVLz51/5gMw492rdFs77B1qi8djsX94s6Uefbj3al39gsCTuc6jMMq/DoII4bwH2L5wHF177WHdgwx3sm4FRsVqorXExENx4lzD/IE0LRze1yjVfmZ85PDNraGDC7C+oGNjjF6DFOMw8nrhosQYmMbVdizXCfpBZ5xgs0ZewT6G1HBC0QD98SP7WkTrjCGYAAOzbdrAGGTnugqZjCfbj1MUnaDcCXEsRBMQAfkMVO2sfCU1I1vuONP/+Z0BwJWnhoRIQHqH3sY2dK5K+2CYIXoZPyNL7jSXm3JS/Se/jWobj3nlWisFAYK7JyrZAMMsOUHsD51j7XONJcG6oZS9cw+wyFwKJ9rnPucwVmuh549FwSN7/yO5gBQKfGAyRiPZcDBqMUYjSo7KFCyUutAXvPKcDAWFwo6r1S/ViHD9Amh1SViccdpJebNAv1nkQGywHgx7p4GoeiM6dr/2CcbFEGrfzAEcQkzNbL4IjAZkGQYG7CxBhYaESHTtymQ5jTey0eZJ+1OmaFrzrg5e6t/GGJ2+T+p2mYuhi8CMMRoVBqbBvOO9feG/pN+87WoRMxQ7BCOyLrgxlGSi8rrn/Kv2euK246zfaBxfq8jZ0P+58Q//pgWAALWe9/x4tKPSFxjtaXdGS5mmfekAFAut5/hX363GPSiHSbas3rbReYY71eQdpwRvZA71bwDRbyW6lf+JjbeWaeMQpZt9wfIcQp2yM3oPuYVsAtg22kfNzuOH1rqAVbM6v79QCMyqaGDAr7+WndP/A+7BvYkyGLvMfgl7uBEREmv3nXL3f+xyI9YDfnPuTK/sNekZNntV9HnU38vtoGsq+gd8dO32h3kcXh/Lln+r94YAB0QD96BuLC/R+aNJEXbfBkTHmuzgGr2uyjmNUfkPi+w9Geyso2pz7ray21voarQCj8okxPgDTHwK6obTXOQaGDAyN0EH8xjpkZdiDZgLuDyVTA0HGKT+8WHLPvFTPw8gC2PHmv7xK7UdFeeYvbpCM7/6fHqctVeWy841/Ws86+GKbBMXEdS+jqaRA/577m7vkkEfe1XMXboc89p7se9PfNOtoMBr0Wug4N0Vm5+p9b0w8/GS9nui17v0X+g3O+aLslXncmZJywNEaPEA5C+UtvB/lL1zXkfmTuHBkylyuYFDUnNN/qdcnrJP8V57SbUxEey4GDcYgXHAzjj5dT8boh7fpH/fIln/dryl2GBV71V2XSunnb+vFpD8Y5VdboExlcttzD2sfZ0TH0bcZy8FIy19cerJZ9n36Of3BBR6fv+KPl+iIzFgGKgHbTUUOy0daIdILR0J1dbW0te9Og2tqapbaatcDG6VkhsvVT3xL7nxlsde3X9/rKIwPB8zt++G5h8jXV/+o+0KLvud47NOLj9P16yls5/bGOi2UbPr7Xd3bGAOiLb3+PJ2b2nn7otA0YfEJ3ZX9TU/f1b1/4b3rHr5Odrz6tA52hn0Q+2LvlrqhLgMFLrRI4Xvihnm8O81robOtrftx55snBRI7NdrW++/Rgj71wVYFoKFwu7b098e5mwBSldHiFJqYpr9nyzP3yaan/mi90sFOD67L29hj2Qg8zrrwxt2t9OY1aOVCZSLeGjjP+TyCabqc1zm2BWDbYBs5P4cbXu/KpJPPk6hMRwsUghtLrjtHC73YP/A+7JvLbr1Qgwf9TYGG79bV2e76HPjle/oadMnAVJXu2JWWzrZWaR7idGvDwdt9wxmO/TAr6FO7fYO2qA4HBCeQOaA6O6W92dG/3Q7WBISES4Cd+WZ1odGgQZxvW0IjUrPEP8QxY0Fna6tWgJFFhc+H7u/olJKPyigqtmNdS1WZdJh91Ib7eMxT3V3WrPPG/nc+J+nfOc2cd0M0+IegH67d/cGUrug6ZC9j3xue0oCvn/mvas03svyWn+sx6MwX2yQ0Lln3F8AghQiQIrVfz1kWnAsweOvsX906qOw1BCOQjYPPCUvyrgsQMhPsYAXGlhlodpKhlr1wfcW2sIMOax++VstbeD+24XJz7qwx51V/p8aTkYQswlkXXKdBW3x/fLeBstv2FCiHoNyGshrKcTaUv/AY/iXaUzFoMAYhbTfMKuhioJ2yb3pe6FHh2vH2v3Ugpv5gNFvoaG6S2jzXc8OjNbhy9VcDDv6GC1fei3/VCqIzjLZsD7IUljyhR+vBcHn77bdl+bJl0mEqMrV1dfLvf/1bNm9xtCLslUwhfcdr/3Ckm/eCfaVq3ZIe2zfBFH5CzbYCpBOWWoPiOdvxxr+kvsCxPAzOFp09Te/bfLGM4ZD/6t+kwVRu8btRuN367J8dT4wiVNjTDv2ettShtQ+tTv21UrmDSm9d/iap2bq6x/tRcUO2AArEKEja0F828+gztJXReQo0TJXVUlPR3dfY19DCqSP5+/lpkEPnMW9wHdTDNHEDFTYxIjeCpM7w+wveeVbaMQq6+RxUMHoHtsC5sotjwG7pHCuGum+kfMsxwCMK7sg+GWl2lgoqjag8wki3NgZGxXRfd7Ctsc3bzPWqo2V8zfSBSmXxx6/ocY7r7I5X/94jm2iwcIxUb1iuleZBMRV9BPYq1y/xOAjr7TbBjAx2gCBp38N1BoW6betk2S2/0IrY55eeJLs+fEnLKzifZR7zQ3E39aM7aNm3Z1zwtttMyoHHaKYNggBFn7w2YLbGUMteztdXbLtqcw13hv1j59vP9SmPjQR00cC0mNiuOO9sf/HJPtknRLRnYtBgDIrMyOnuA1dlLhiuLlAYlXugAb3ardGO0RcRfRKHorW2Sqdr6w0tIXgO/AKD9YI+3JBp8IffXyPHHvNdOfWUU+Xll1+2numrrLBJ/nnPevnLtau9vv33QUe/yrGuyewHmArJU9FTZut20qk6zftcVVKwz9n9EzHFUKTVamzzxTKGAwIn3/zhLPnovEM1lX2059BGlsXU//u1tu5jXSHFHiOJD8S5mwDSWUu+fEffj8r4gisf1NZpG1J5kR6OAmq902jemJMcc5MjG2DVXZfIro9e1pYqzKCw/tHrBww6Dhbm6Q82nwu1W9cNeYRxDK7nav9CcKipwpHpEBKTIGEJfVu10coaEBSk97vaW7WQO1YMdt+wIXU8ImOy3m8u3SUVwzRrQn+6Wne3jNsQYB5R7e19pt/DuQet3uMJ9vGtzz4sH1/wbfnkF0fJzjf/ZT3jGZQJlt95cfd5w+4CFBgZrYMqLrjqAQ3o9Qf739KbL+heBgKMmLYVFeacU38ucy69S/fbAQ1hm+B4QAAFWY21Wx3Xj9bqCs1mKzLnMAQxUGFFv35vIAvHzuRw7pI1ELT6JyGL0s9PAy+lA2RrwFDLXjqOlXV9rd6wzHq0p/q8DbpeRhICs1NOv0gzDBCw2PbcIwwYEO1FGDQYg4JjE7XlCZHo5jLX6aYoYAzUcoA0OLReYVkYVAn9ATEquaYqD9C1oTdE6cdjf7XOji7JW1srm5ZXeX0r2DLChd9BajEVY2+2DQpBgEJdf/0q7XRO7D/oS+/MF8vY0+EYQ39i7TpgoPK74/Vn9P5AnLsJ4Dhe/9iNOr0bKvpIe5182oV6HENgaKQ5k5vj2SltHIW7KGt6PEx11jvlHYVypBsPB7Ti2a3+tdvW6b+DhUq+u/McKiH2YJBYJxigtTekzNtp0u1NjQNmVI2UoewbNqSNo/AO1eb97rI5hpMdeEI3FnuAPQxSOZLamxrMfu9ocUVLNlq0sf/5B+8eH2BvgPICBqi0zxvoArT8tos0YwHdxJDan3vW5f1e+1ERRJDPXkbvKVrjpi80556f6/3+DGWb4HeUfPGmy1Z0zKqAcT8gavKM7v3fE84zQHhT/kk7+FgJS8vU61jRp695dJwNtewVEu8YD6K/66tzg81IcZ6pBePKFL7neoYeItozeVdzpBFh9xM1V09tPRwstBqgrxkuvrhQodAw+dQLdFChxX/5QKdOtAdbpPHL2xbj3QOatUhDcb7ed8U5ndNOt7T5Yhl7uqwTfyzJyAjw89M04zUP/sFlQdhTSFEt+vhVbWlDa9yEQ0/QxzEAHebIbjOF2bZaRwHTuU+xu2wLtNQPJ6RZt1Q5ui4NG6v/PFKbkeI8Xgx130AFLH7mPvp+tOyXfuUY32GkNZU6AjpauWl0VKa6r18jBIOq2hW5jha0ZvfsU783Q+NCPrqu5W/Uv5Fajq483kAlfvsLj+kgq9jfkhYu1mlQ+zOUbdJh9ucaN8HGlspSaa23znER0ZplNZyQVYFZIFD5x2eXedgFaKhlL0+vryMN1x0/a+yJ2i1rdf8ior0HgwZ7OKQ4fvW7H+oFrHbr2u7UUVzI0DLnVcrhOOQf4CfZs6Ild0Gc17f0KXtXJZd8BwXCTIw4biqzGPBxw19u9klLcNXaJdqKB5GZPUcADwgJ1W4go220Budypa2mSkd0B7tv9Wjzxb6BgdbCJ07S+01mGb0Hp/M1ZDJ1t3j6+zuyWwxkgSAbBH3dW02lSiHrxRiOoBEqUKhIAVqtETxxzrqzR8hH5dbP3MA5mLY3QoUd3RwBGTl2hpI3EHi0x8wJjIjq0dXMF9vEuetAf2OPIEDeZj2HMoyfta95IiTGVHitc5MGQDyAGaF0StquLin75gOvurvtiWWvwIgYNjIR7cUYNBiDulPN/QO6xzYYCvR7w8jly275uXx60bHy5RWnaf9ZbdkyF3GkyKYcdLT16j1L0sQw+dGlM+T8G+d4ffv+Rd5PyzQe2AUm58HLXEEly88qIPTu/uCLZeypUg44SqeZRJ9UTFG28a+3e1XY7I92P7Ba1wPDwnWwMbvA7R8YLH5W+q/zoGPu+jFHWGmmvtZpzWzim9HzTSXD31HRcMmqNCD92g6mOEOFFmMZgFZYrErLaPHVvpEw51uOyoapzKBVExXD4bb7mA+V8FRHV6PqjSukqaxIsyVQ2UOFKMzqJqJBg0rfHvOoaKLCCfY0j4BxVVrN+cUe1R7BIQzGB+3NDfrd9mbO40ygtXgwkG4POJ/jvG7zxTbB+ztdHL++5DzYIvbNgWBfxtgxGGgUwYriL72fHWCwZS9Pr68jreijl7rHu8B9Itq7MGgwBuFCi/5ziOhiHmxXtHA2yD7iKKRi+jJMY4ZCNS6kMZNnW8+OfbGxsXLzLTfJG2++Ls//73k58UTvBkTa29mtmr0Lf71h/0JaJvZF7JPOfLGM4RCZOUX2vfnvcugTH8nCax4bcOAvX3OeuxoFzXWPXKvjB/hK9/gFht1HvwOVYlNpRiufPZUYKpF12zfofUwVhinDnCFNOW72vtZfvoWUdbsSGz15pv47WP1Nj4YWzfA0xywzqNA0l+3S+86wfppKHY+jwjKamQa+2jewT9vTv2E55Ss9HzxxKBrRnaWrS69Ldms1AoEYeBTTukJoUlp3pRGZCXb3BV9BJQyp74BxVezpNEu/eV8+v/Tk7oEkcR6wW3Ax7sVIBFWGCtf0nB/8QhY/+p5Os4rBC33FeZwJBKsGA1kK0LufvS+2CcbDsDOCEHhw1+0Ax699vek05z1XA3G6E5KQqsE6XIu6sx/6ET//IB3wF8qXfzrkAV3B07KXJ9fXkLik7gFnRwrOp/Z4F3t7II5ob8SgwRhUv2OztFtRfQw8g8Jxb+Hpk4ZcIcKgSXZa4Xhy1FFHyYKFCyXAXHCjo6LkjB+eIVOnTLGe7alkR6Pcet5XcsUJH3t9u+8S16MWj3eY0UALLKYynzDvQC2s9oZ9zi4w9R6VH3yxDGdd2nruGKTKbkEfjKzjf6wt6Pg+mFIw5we/tJ4ZfqiIz/zZNTo4Fypza//8B58GDCBu1j7dffftgjvSwpEejgKxXWCH4s/elLbaKnOeSJO5l9+ro41jLveMo0+XGRdc79EgYnaf1cDQMI/HDMCc8PYAXdE5M3WU/6HA1Gqu9i9s57CENL2PKSSbrKlfe6vf4ZgFBRUWVFxGgy/3jfhZ+0qwqTBAQ8E2HTXfW1ifuWdeJosf/0AO/vObHlVQMZ1nmzUqPAbEswdDdYZtFRzjCBo0FG43FdQyve8OjlH079Yg3+8fGfCahv2xetMK3NFKbIKp2LkSN2s/DW6gP37NRkdqfn+S9jlcDrrvFTn08Q9lzq9u7a7cjiTsI6mLT9BAGT4fA+jF5s6znh08nIdRjgCsj/YG76cdxXaxjx3nQS/BF9sEAQR7ph3MOID9y5WwlIzuinJ/x7wrEemOmUYGuhYBjo+0A4/R7dDWWCelX75jPeMbA5W9nK+vsW7WRSRmqbECdJ5AJhYysmCw2Sa+4O0x74ovjtexcMwTjTcMGoxBtXkbpdka7RwF7qR9D9P7NlzQMo86Y8BCf/p3TuvTwugMqXEBVkXAniJoPECmQZBTv+mwMFM5je1bgCXXMDUbpmgDVOqT9z9S7zvLPPaHEpnuKCS66jPti2U4Q0XK7qsaEpvkNsNmIHaFxdb77+GCgs+0c67qrhSue+wmryqFaDnOOeNXLitiNrRUpy0+HicAnS+8fPkn+jhafHR2BKS7Tpuv5wfAdGU73vq3Fj5D45Ml98e/lX2ue1JyTr9Ipyj0pB88ZuaA3v2Y+4PWtIpVX2glAut/6v/9xu3vQiUT/fP7E5M7V5IPPMr6ywG/Mf07P9Dp5PA5mO/cXWtynTmfIhPBuYV8JA1133CG343Crl35KlvygVbavJW83xGSesixuhwEgzKO+sGAg9vhO9db2SthqZmSfuT39b4NrcAISCGdG/tc2TfvW8+4ht+CfRH9u3E/OmeWef8Z1rPuoQUb6xESFx6ilW1n6IduZ2I0lxVJxUqzL/YD33vSKT/VFl20/MbPO1DSDjnOenbkoOU4wBpkDnAfj/Un64SzZcJhJ3Yf873h8azjzpTIrGn6d2tVmVRa3QVsmPYTgV93sI9MOvln3YPzuTqX+2KbYMwAVNBRUU479MQ+lUn8lvQjT3VkTQxwzPeGIHSkFTRoqSwxlfb+Mw3w/WNmOAItNeuXe328DrXs5Xx9jZ2+QM/9zlDBzTjqNK8qusjEsruY4FgbTCUZwUUEGRFsRNDR3X7nDl4/mGPemS+O17FyzBONNwGHfvvo65d8NTLpjeQZpP91NDVK/Nz9JSA41NGyFB2nKWsY/AqF/4QFB+uFEydepNtVIH2ucJu1BAecnDE9Ekb/DUt0tMgFhkdowTnntF/IRFPoQ4EAF+q8F/4izb2i9hhULfWgYyUoMkZHDi7+9DXrmZ5wsg1NSJG2+lop+eyN7gvTcMnJyZE58+ZKgJWmXVtbJ2+98aZUVno3i8B4hhaG1AOPEcxDj7TJ8mUfW88MTFswAgMlzhRE0KqFwpy9fyG9GCnUKLRh30Dfy23PPyr1Ozdb73bwxTJ6i8qaquns+E0xpjCBlnTMCoDfihv29YH2rQRzzDj31a8zhVsURgcSlT1dW+K1gGZu0TmzBVMW+psKECroOAbs5/C4pteadQAogMy97B6tdOG1O9/4lxZK7e/t6obXOferRevLpFPO1wJU7IyFui7R5QBpulGTZ8mkk86R7BPP0RHDAQMiYo5scxLQv3GewG8PMu+rzdvQnaqPedrrd27RAnNQRIxZh37SWlcl+a/8TVN0o8z6Rgq5u5Y0BBtQqcd6wGs7W5rNJ3Z2/w5kN7ial7926zp9H1LVUdlIPegYDTx0Njfpb8J+M+UHv5Qs87uazLrElIPONJiAgrI5x6E7Rvys3ftX9zlwPjJc/ATzyG955l63+0Z7fY1WZFBpRwGx5Iu39RzrqYS5B0jK/kft3jfMtkIwF4Owdba26PRo9nPhE7PMeTive/m+2DecRWVPk0yMum6OEVR+tr/4hMv1PxBUEnuMom/WI8YlsKewdK1LW3cT5x9sKhyhmkWC/a3dnPcROJz2kyu6gzJV65bK9v8+pu9xB/vGhCNO0WPLhnNFyedvWn+5huwZ7Asx5jPRso39zN4vcQxPOuVnWrFEq+qO154232WJ9U7XwlImysTDTtJ1CjjPNJvrHfrkD2Qo+0ZvqNgm7nu4BJhjCtrNuij66OU+12VnExafIFnHny0TjzhZg3oB5jf4BfjrfoQpOaec8UsN6GoXMbM+8l95SqdgdYbsLOxTqYuPl/BkU9E15+yAkBBz7KdIirnGTP3x5Y5MBbOP4BhDej2ySJz5Ypvgd0akZkpkxhStzCUuOMSxHttb9RyI/QtlIXwPjOOy5d/3e7zvR5v3Tzjse3qtKl/2iZQt+dB6xrXM486SWHMOwv64/cUnzXHh3QwGQy174dqC86UGF8yxljDvILNfBOlYEDg3Tj//9xJl9jUcXzgHYl8r/uLN7m4irrSZ8yCua7g+ImiM9YxzSFBUjO4v7s7lNpw/p/7fJRrIwnbB2CWYdtGbboeDPeadDeV4tfliGUR7I79rbr2n65H77rT+pLEEA2ZlnvBjvbj0hqh+xYrPJM0UGnCB2fjk7VLylWMuZduC3z3UJ+LfGwoBqNAVvt93vl0UeOddcb9GzBFpX37bhdYzPdmfg9bOlXdePOwD3iHT4PLfXiaLFi2ShsZGefqpp+Xll1+2nt07IM18/mX3aktryedvyfq/3Gw94xlcJKeedamkHXK8VqRcwX6FAtPON/5pPdKTL5bhDC1Lcy+9u0eKvTNPfidSaGf87Drt644W5nUPX+vRQHOYQxtTYnkClaQVd1+i/ToBrWgzTCHOVTcid3DM7Xj9H9ZfIimmcDnt3Ku04NYftCpXrvrSrIdbtAJtQ0v+/Cvu04Jg9cblsvreK7UwNlRojZpzyR0SO83R6tZbf+cFbM+Zv7hRorOnY2exHu2r97oAe3tg/6lcu0QruO7Og56k+qNVKctUBJBev/b+32kF2VMzzv+DqTx5NlBs73OgL/YNZ/bvwPoczHFv672/oeC/8o+XSIMHlSO09k76/s/ctlSie8rah64Z8LjD+WP+lQ9oJomt8L3/yuZn7rX+cg+fPf28qyVp0aEu9y1UTos+eVU2//2eATMxnK9zgCD81n8/KAXvPq9/92co+0ZvWB+TT7tAJn77VP0OeS/9VUfg74+nn49zQf7Lf9Pl9V4fnpQTAEFcVNRLvnAdYPTFNsEyZl98m6N7gptzBsZkWP/ELToFrafs46ajtVkzfSqsLC1XEPSZZ65DyJLCII6r7rl8wH2ot6GWvQD7w7RzrpSUg47R+71pI1Fnp/m+U/pck9xBUGvWRbe67J7Q37kcEDSYf9UD3ddnfObKey7T491TQznmbUM5Xm2+WAbR3oiZBmMYRqbG+AaREydp5RDRXVz8K9d8JWsf+L22KsShtairy2WmQfWGpdJaU6UFw0BzMfYLCjInbT+9AKL1rXL1l7Lukes0zc+VsZpp0NzcLO+//4E8849n5Nn/PCsbNzrmoN6boGVgsJkGDmafWfm5ueCv15ZgtGCjNRnQ2oAWhPWP3yjlS/qbl9oXy9gN76lY/pm2zoWYAgpahZwLjp78TrS07Hr/BVNAfkqKPn7F45ao7pZtD/Ru1YkyhTa0ZNuzRHgCLbHOrevN5UXShC4G5ljW1kL/wO51icdQ2UU/Vww4h9+GyrQz/N1hbhhVHwMHhsYla1AR22go0CqKgcwCQyPMPpcoAaGheg6x9XdewLov/uQ1aSrfpa1TgWGR3b8J37fOnNswsnjRhy/1KZTb2wOFuR2vPq0V5O5sCXMexLIr136t58He5z1X0MqG+eWDo2IF4y0M1PrsDO9DMMYTvc+Bvtg3bKhQTf7+BXrs4zqQZ9YLUsUHA4MaYgq6iMwpuqwdb/zTbOdPrWf7V7ttnR7b4ehfHhOnvw3bDwPiYWT4jX+5RezR9PvXJY2F2812XqT92OvMcrf+50GPjlndL815pbWmXMLTsnX/1FZp83ij2R82/u2PUvD2f/BKxxv6gW2FY1nHDzL7Z+Wqz2X7C3/RzxjIUPaNvro0gyjfbNcdr/29u49/fzBeB67xyMbR84b5/lgPgEo6flf50g9l3UPXSsVqdAnouz7q8jdIp/lOeB+uJ/4Bu5eB9YnW6F3mGF336A1mG7nv0uSLbYJllH7xtmMZqVkSEBauy7D3Lzy39uFrzP7r+TgeCNhN/v7PtKLYYM45yM7pb9tmHn2GZjbhNflmO6AM5q2hlr0czPV1xedmORU91ieyEzRg+NhNkrToMC17eZJpAAhYlS/50Cwvy1xnk3qcl/o7lwPOE/g9Orit+R74Dji/97c9+xr8MW8byvFq88UyiPZGzDQgItoDoBVn+rm/6255rDYVuw1P3i7NptA/3jhnGrjKohqMWReaQvY+h2mhddntF/XI1CCiPVPCgkN0EFJkKiFwUfzZG9YzfSE7av4V95t/0wQt6CvuuFgry2OVndHgaaYBEdFQeDeKCRERjUloxdr41B3aAtRl/sPgWfvd9k+Z+5u7JOWAo7RLC24oRM847/dagd6b7HzrP9r3OiwtU9IOPtZ6lIj2VAikph9xsmbp1BdsHXAsA3StQKYbMpxKv3p3TAcMiIhGGoMGRER7CKQCb3jyNtnyzH3WQJLBOh7AjJ9eozMn4IbppdBPFgO47U0wm0Tpkg+0IoEB3vqbqYKIxr+EeQfoCP2o/GMQ0v6CADpob3OT5L/ytI41UPSp+4wEIqK9EYMGRER7EGQcYHCtL6/4gWz86x06PRrm6DZP6PMILDSVFEjNllVagd6boL/41ucfkfKlH0loQrL1KBHtiTCeATKMMNDeQFkGOC/u+uhlyXvpSR0wkt2XiIh64pgGREQ0pgzHmAZERHsSjmlARCOJmQZERERERERE5BIzDYiIiIiIiIjIJWYaEBEREREREZFLDBoQERERERERkUsMGhARERERERGRSwwaEBEREREREZFL/l3W3N1ERERERERERM6YaUBERERERERELjFoQEREREREREQuMWhAREREREREe4zY2FiZv2CBLNpnoSSnJFuP0mD5/eGWu7sevf+P1p9ERERERERE40tmZqb88le/lFkzZ0pwcLD1qMjzz/1XHnvsMeuvnnJzcyUqOlI62jpk46ZN0tTUZD1Dzhg0GMdmnP8HSTnwaOlsa5GNT94uJV+9az0jEhKbKPOuuF/CUzOkZvNqWX7bhdYzRER7p5NPPlnO/+l50tbWJvfde7988MEH1jM0kJRvHSnTzr1K/INCrEd22/b8o7Lj9X9Yf9FoioqOlttuu0ULwcuWLpXf//4a6ejosJ4dHOfyRGPxTll558XSUl1uPTt2nXra9+Wcc86R5pYW+dM9f5JPP/nUeoaInPn5+UvaocdLxjE/ktCEVPELCLCeESn5/C1Z/5ebrb9ci8jIkfmX3ytBUbGjeo7A+e+WW26S6dOnW4/s1l/Q4KGHH5IpU3L0PiYIqK+rk/fe/0AefeRRr8+fyG64xZyDp06ZIl98+aXceP2NQz4HjxXsnkBEtIeJmjxT5l3+Jzn4wTfksCc/kcOe+FgOvv81mXXhTRIan2K9au+Smpoqx594vAQFBcnKlSsZMBjn/AMCJft758j+dz4rhz7+oe7nix//QPa76WmZcNiJWgjeG33/+6dITk6O1JpC70svvbLHFFYH46233pHt27dLVGSknHLKKRLgVBEaLxYdkSK/vneh3Pq/g+XOVxbLHS8vlhv/c6D86q75sv8xqdaraKTh/JJy0DGy8JrHZPGj7zqus+Z2yENv6zko87tnSkBImPXqsS/rxB/L1P+7VMKSJ/YIGHjKz99/TJxzFy6Yr5kGUFNTIw8+8Gf53oknyVHfOdptwKA3Pz8/DT6ccMLxct7551uPeq66ulrefftdbZxYMH++HHXUUdYz4x+DBkREe5CMY38kC668X+Jm7iOB4ZGOB81FMDAyWpL2OUz2vflpSdn/O47H9yLHHfddmZg2QRobGuS9d9+3HiVPla/4TJbefIEsueFcvW399wPS2dZqPTuyQhNTZcHvH5bs751r7qd1F3IRSAifOElyz7pc5l5+z7gqtPsCAmOHHbpYK8ebNmySL774wnpm71RXWysff/SJtLW3y7RpuXLiiSdaz4wPx50zWU69KFcm5kRKYJCjuG5O5RIaHigZ06Jl2j4J+hiNrLCUDFl4zaMy49yrJXrSjB7ZVwGhYXoOmnzqBeY8dJn16NgWkZYlEw49Uc+jbXXVsukfd3ef53Hb9vwj1ivd6+rslK6uTuuv0ZOYmKgNA/DZZ5/Lyy+/7FFXgwt/caEGFs488yx566239JyB8+i+++6jAQRvvfvee1Kwc6eEhobKccd/d1DLGIsYNCAi2kMk73uEZJ/4Ey3EoNtSwbvPy7Kbfqbdk8qWfCBdHR2mUBMuOaf/Ugs7ewtUpg455GBTqfSX/Px8U5j4zHqGPNXR0iQNO7dKff5mvbXWVJpHuxxPjiD/4FCZds5VEpXtSD9tKNgqax+6Rgu3m/72R2muLNWaVdz0hTL1/y7R1+wtEBhLTU2T1tZW+fTTT6xH925vvPmm7CrcpRWJww5zBFTGg6wZMbLoiGQJCPKTjrYuWf5Bqfz1hjXyl2tXy3v/2SG7tjWYipr1YhoxCFjO+fXtjvOPOc80lxfJ1v88qOcfXGvRVauhKB857tY7xr7IzKkSGBGl9wvf+6/sev/F7vM8bp50M8C14bNfnyAfnnuIfH31j0at+1JCwu6gQWNDo/7rjdKSUnnssb/oOQPCwkLNMr0PziFg+eGHH0t7e7tkZ2fLIQcfZD0zvjFoQES0B0BlKuPo07V1FcGB7S/8Rbb88z6p3b5exzVZ+9C1UvD2f7QwExyToBkJe4vFixdLUkqKth589tkXe3XK9niXvO/hEjt1rt5HwGDVPZdL2ZIPtXC766OXZdVdl2hBHgX6hIWHSGzuPH3tng4tWfvtt68GxgoLCuSTTxkYAxTe16xarf2UsydNksOPONx6ZmzLzI2UsIgg6ezski/e3CX/umeDrF9SKZuWV8lb/8iTe3+9VJ5/YKP1ahoJSL9HFlN4aqZeR3He+eaaH8vOt/6j5x9cazG2yze/P1Nb68fDuB8QkpDa3dDQVFJgPbr3wjmjqrJC70dEREhCQpze99aSb76R6uoaHYzx20d+23p0fGPQgIhoDxA3fYGET8jW+w0F22TXBy/pfWeFH7wgzRXFej9m6hwdvGhPh5bFgw46QIICA6XGXMCXL1tmPUPjUcq3viN+gaYy1dFu9ueX+hTMMQhXyZfvaKE+KDxKkveSrjhoyZqYnq6V43Vr12vBlxwwGFlDQ6OEhYXJfvvtZz06toVHBYlfgNmNO0Qqi5utR3tqrGu37tFIiJ9/kMTkOgKWjaZyjaA8MrBcwfXXk7R+Gpuaml0fc97YvGWLbN68Se9nZWbp1I/jHWdPGOMS5h0ok0/5qYSZygD6a+IEVbV+qWz5x70yyTzu6ewJGMk0+6RzJe3wk7QghZZIVB52vvlPKfroVVPQGB95bvg9WcedretF06n8/PT315tKUv7LT0nFys+tV/blvE6KPnlNNv71donMmiqTTv6pxE6b7+j/agpc7Q11Ur7iU9nynz+b+z0LXr5Yhq8dffTRct7550p0dLSsWrVabr3lVh2IZTxBH/vM7/6fhKdla7867OfV65bIxr/fLakHHqv9A9vra2XF3ZdoRL+3wIhos1+cKcmmQhEcHafLsPdxtD4Wvv2sVjLcGcp2XfC7h7QCXvzp69JSVSYTjzxVAkPDtbVzk/n+jcU7ZOYF10lUtqM7QF3eeln36A3meUfl3Vcmn/pzXYeAFMPNz9yr93ubfdGtkrjwEOnq7JCt/35QuzDYnNcDloFUS3RlSNrviEGdNwZ7vGLdz7/sXh2HAd+h4K1/S+YJP5EJh50gwVGOqH9rXZXs+vAV2fHKU/1u29mzZ8t1118rMTExsmL5crniiqusZ/pnz05TvWmllH71jmSfeI5maLTWVEjey3+Vks/flhk/vUbi5x2gg0ChhWbD4zdra5MNA09iHAnsz+seu0kqlrtPGU83+03OGReZZQVoyxVSXnuLn/MtXZ9IJ0XfWcA2aa2tktqta/R9+NcdVyNktzXWSdk3H+h6zjz2R7oP9Xes2ZxnUxip2RMwSNf8396rLWOt1eWy8o+XOFKBe4mdtkBm/+pWHdMD2Qgr7viVtJlj14ZBynBOsZcRkpAiOT+4sPv8095Yb7b7Cr3ONleWWO9yDddl7CfYfvZ1GsdFa3Wl2d6fyrYXHnd7DbD3MXu08eD4ZMk57RcSPWW2Lgf7de2WNbL1uYelbts6612uXXnVlfLtbx8hjY2NOlPARx99bD3jGXwejrG0Q46T4Nh48TP/2cdY8aevytxL79Hjub+R0bF/JR94lGQedbqEmdfafb3xO1rNubHKnNN3vvkvXUZv9jax9732ulqZcuYlEjdjUXf2VGNRnmz772P9XuddQRbGPffcLVlZmbKrsFCuuupqKS727fnX1/Y5MlVO/vkUCQz2l09eKpRXn9hqPeM9dNXJPuk8icqZ2WO/2vKv+yTC7PM4jqF3OdLmcrta10NsC2S1DXSc7N7Xd8iK23+l3wHXbDym53Tr2lC3faNsNZXt2i2re7xvKOdhX7HP5/jt+M35rz5tPeM9V+dynHdqzO/ebs4Z7s69ztdozGqw4Ylb9Zyeeez/SUiiOaebbeV8Tnd17rGPNU+5mz3B+TrtzNvZE3B8Z3/vJ2Y7H9Pz+v7Bi6ac8DeZf9WDWsbyZCa4n/3sZzprCvQ3W8JAbrjxejnggAOkoaFBbr75Zlm6ZHCNDT/84Q/lrLPPFH+zXZ577jl54oknrWfGJ2YajGHomzzrolskImOKnugBB1fi/IN1kKfAsHB9bCB+gYH6+szjztKCvz5mCkYogCHVavavb3dUisY4pFPvc8NfdcRaPUmZiwzgAob+2bMvvk2mn/s7PWkOBOsTFdUFVz4oCXMP2P37zTKxbKzj0MT+R5n3xTKGCoWhU045Sad48TcXzHnz5sqPzz7benbsw7bKPftymX7e7yUiPUf3S8C6TFhwiMw3F8cYU9DpD7b9vtc/YSpCP5SQuMTuZdj7OArhGDQNfRE9MdjtisdxMQ4Mi9DXhiZN0IGQZv38BonOma3fBzfcx3HnyX7qjajMXP0XhTFUlNyp3+GIfKNyinOLO0FRMTLnkjtMRf17Ls8bAx1rvjpeg6LjZM6ld0n2CWdLcHS8Yznmhvt4bNpPrux3GXPmzNEUQ7TAbtrsvhLsTqRZR1PO+JUWVAH/TvreeVopTVyAcRIC9fORspr7kys0gGVDgbqrvc2xP5tCYn8S5h6o2wQFPlfBhZwf/ELmXHyHtnTZhUzANsF+j8Ls9POu1kKlK/iO0865UqaafdJ5hGxsWwyCNfuim4f9fDVUWMf2+m0xlYamCtcVlabSAh3QC7C9UBl3xT8wWBL3OVRm/fLmHucfBBtwPC+89jEtrLpjD8iIMRacr9NY19gmE444Sfa98W/9LgMCgoIkad/DZf7lf9Igpb0c/Iu/55hjpb9l4DowZYrjWK6trZWtW72rYGL/tI8xPYfieHI6xqac/ivzp+P4dQfdo2ZccI0ODqfrwgoYAH4HBqxMW3yCWVe/sx51w1zHYnLmmPX6iG4D+/yLbYNtNPPn10vKAd6NRo6si507HIGKhERT6Zo39rusbFtdLbUVLdgMMmPfeIlPCbWe8Q7Ow3N+c6eeN3rvV3MvvVtiZyzssa16w/pHGbHPdjVfDOd1nN8XmfN80j6edvsw18aEFFlw1QN6ze4+pxtYNr6nqy5FQzkP+wK+Z0T6ZL3f1lQvVWu/0fvewndEmcfVuRznHZQ5Fl79sEfdB1EHsM/pKG/ocWs4n9O7yy9jFM6h86+8XwPZfa7vJ56jgRo0BHmrs6NTWlpbrL9Gz/oNGzRrAd3GZs/u/zowHgQs/vbR1y/9yruoLQ0/DGg22RQSA8xJFK1UiLghFap0yQd6UY/KnqYjuOIkgRZDtGg0FG6z3m1OJqHhknrQsRIUGaOF7tD4VH1+8zN/0hYhtLBETJysJ5Tw5HQ94aIVYKzKOv5smXTy+aaQF6QtEYVmfWz91/1S+OEL0lSyU088wVGx+pvMNUmqN66w3rmb8zrpamuVhPkH6YWlfNnHssUsq+Cd/0jF6q9MoTtBK0wlX7xlDfa1my+W4UtpqalyzDHHSESkqagaKNhVVFbIhx98qH+PdRMOPcFs27M0sOVyP8/KlZD4FN3uneYCUPzFmz3WJ9Y9Cvx2H8N6U1m29/H6/E16kQ80F1BUpFDgRB/ELlOp7m0o2xUtcygE+ZljaNeH5vs/c68uJzzNUcHBxW/XBy9oy3HEhGzze5LNcRcqlau+kLb6Gl3GUKHAPvHbJ+vv7Gpv1daixl151rM9ofAVN2tfPXe019Xob7E5r4ewlExTEEnTAISr80bExEl67qnZtNJ6925DPV6DzXpOPfAY87tCJMy8Ntyc66rWLZVN/7hHdr33X+loazG/A5W8QAkxFV20SjW7qUBiqrXsSdk6ONy777zncYUqaeFiXVf4DRUrPpcNT9winWbdRmVNkwBTWAszlaDyZZ/Ixr/doYU0bG+sF7QI2/1CMShfkinQ4hwcEBoh5Us/ko7mvoMzoZtIxjFnmNeES/32jZqFYXZox5NGotkfJ3//Al0faI0q+vgV3Z8K3/+vlJlldjY36TrFbAYln73h8jNwnKUfeZojMNFQJzvN9txiloHzPo6fqEkzzL9Z2lrn6ljrLdIcWyisYxtg29RsXmU9M3zQBScBn4kWxdJCKfroZeuZnvxNBRMVSy2EdnVqAd+5r27M1Lk6u4ifqazH5i7Q/bj3uQfrE8cDWv0rzHmg9zrFsTb3snt0H0FmQd3WNbLl3w/qcYJtgu8YnpIuQeYcgAo/AkjYds669zHzPaKnzDXnwGbZ+cYzsvXZP+t2wajm+A3YrxCMROuhKzNnzpRjjj1aQoKDJT9vh7ZoeWPaj3+r3wWFdWRIbXvuEdn+0hPd59DonFnmXBal15c2czy72scmHnGypH/nB/q7W6rKzTnzWdn27EN6zOPc6efXpefyttoqKf70Netdu9nbxBE0mGXWSbDZv81505w3sE1CE5I1OwbHY2hckpR8+a7Lc7k7OAfMnjVLB0krLSmRb74Zu+UdaGpol8i4EMmaHi0R0UESEuYv6772riwRa9Zn7v9doucVBJPLln4om57+o65/VFYjzfUV+xjWqatyJEz54a+0SxD2DQTisH/ivIF93D5OAsz1J9ZUgHEtcNe6bO/r2GaR5hwanT1dr9fb/vuoI2PAXIe62tslfEKWLsc+n/jiPOwLuHanHf49LZO3VJRqJp6r8+xA0r9zqjYuIAjmXOYp/vwN3SaayREYLDHmvNNsznENu7Zb73RwvkYHmXNDVOYUadixWcsp3dfojKlmm4ToOaqpbJfU79xivduh0Syz9Jv3ZNdHL+kNvyNmyhy9fmx77iHdJvZzuGG/cPVbcW0vN+WYoo9f1tehXoLPdHeO6A1lkOnnXGWO+0X6t6tzT+Sk6fqbsb5azPXU1bnD2SGLD5GpU6dKu9nPvvj8S9lgKu2Dcfjhh0lGRoZOm/jxxx9L0a4i6xnvdJprw+KDD9FMYFzTly1fMe4ygZ3138RDo8J5QDOka6GgjBMC0q1Q+Fl116VS+vnbesB5AgGB2q1rZfmtGEHdMWBUnimUrnnwammtNRchczFAKwdO/mMRKnsTDj9ZTxpIbVty43laYMb6wG9BSu7SG843F5pV+hqcUAf6LY4TUYSs+/MfdORtrFcsCy18SGVdax5vq6myXu2aL5YxVJVVVdLQsLsgitbUynL3BYvjzp2scz17e7vtf4fIwSdOtJbiG6hQTzAFTfRPxsVz09N39dnPK5Z/phdSd9IOPlYrr4B0Yud9HN0SVtx5se4zgMHTMIjaQAa7XXHB2/H6M/r9kfLf3tSgj9cXbJGt5kKI1DpU8nBhRgEcaYm+EhQeac4XjsyjTlM5bior1PuuoOBnF7b9Q9y3XvkHmvPG5jUuzhu/12XgWEtbfHyfY83XxysqTWVfvy+r771CtwWWg0JW4bv/1UARCorxcw+wXt1Xappj2a3m4l9SWqr3vYFWJRTGdLu+85wplJXp4y2VJWa7PqTbFc/jdSic4/fbkBpatcGR1ojgB4I1rsSbwn1QVKwW3MuXf6yVUGd4H5aNrIVtzz2sXU/wuVifWCcYdOuLS082x899es3oDccauhNgfaPiuvbha3Vb4v3YttjGKKhjm49lgRExej2Dln669yAo0t7kKLDiN2v2jwuOoHu762vsl+/payJSM/U81Vvm8Wfpc0ibR5BnmdNxgmWsf+xG2WjOadgeCHqhld0dtLB2dbTJukeu1ZRne7vg/KODOhrR5ryEDBFXJmVnS2iIowW4ylwTvIFWXQwYiXIAKlk4Z+Lcie/QfQ4t2TlgeSNhzgHd+9d6U7HLe/GJ7mMe5851j9yg++jOt/5lvcM1bF8ExxCotM8bWJ+r771S6vIdA/+FmfXu7ewvxUXF0maOH0ibkKb/jmWRMUEyaWa0+Pv7YdPIgsNSZPFJnl+Dsb0yjz5DW6+xj+4w+9W6h6/T8wZuuI9ueyhnuoNgZtKiQ3XfQFkRZUb7vNF9nJiyKM7DaPn3pHUc53ME4nCNXHr9edqtD8vDd9r097tkiXmsev1S69W7DeU87As49gKCgvU+rn+DGeRQyzzmPIDjpHeZx94m2E7YXtguqAegPuBOkClH4L0r/nhJj2v09ucf0WsFylaJC8yx3QvOj3itfUMl36FLA8XOz+Hm7rfaWY326zrNNdYbCfMOMNe2ffS+dlvpde5Zdc9l2q0JAURPIONqxvRpeh+V/UprMMOhCDTXxMSEJOsv72E2BgyGCJEREZKSPPhljQUMGoxBuBjiogiYxqTsm56txihQ7nj7344Kvwdw8ij65FU9STnDSQoRWkDrJ1IBx6Lk/Y7QFl4UvvJf+qvLvuD4bSVfvKknMU9+C/prYp1g7nFX0H9uoIuCL5YxVEi7/N//XtTIZWdnp6xcuUr+9vTg+9mNJLQmhSVN0PvoX1n6Zc++lNjPtfLdq3XOhkJR4oLF2nKK7b/z7ef67OPYV9AfHvsFLqDoWz+QwW5X9CvHmAbQUlUqHabwovcrSk1F3jGoTsOuPOlsaTaFhkCtJI42/+Bgt4USrMsdZt31PW+sksrVX+n94Lgkie9VEfb18YpCYd4rT/WpSKOQhAIi2F0zesvKypLoqCi939TQKFWV3rXUQVutKSDa27W6Qlqt7BD8i78Bz+N1gNY3Z2gdRpcDd/uf836MVtjKVV9az+wWGBap/3Y0N0ltnuu+uliX2C7OffdtCbP3k9Bkx7FWvWG5jhfizN3xs0cw67W/wCOCV1rxcaLnnnee1ZY0VJjQ/9j5OEGQC2nEeK5m6xrZ8YbrijCu3Tjm8Tpki6CQ707xp2/oNdkZ+gbXmHMjoMKhGVUuJCUldU8z5m1ffQTcEHhDxa/0m/f7HK/4GxkdCGj1xw5A4jzY5CbLCfuXXeboT9XaJeb80HOb4L0V1jlZW8m9HMS1vKJMpz8DTMs2liFgcM51s2Xy7BhpamzXbgpBwf5y2KmZMmWOZ9cN9Hm311GTqZAVIMjaCypmOL+6kzjvIEe2joHt1nv/xHGCc7O9DLQ0D9j4ZI6Fhp1bZPv/Hu9zTgdkoqEi3NtQz8ND5o8uFLgNnvN52FWZB3AuQUMDhJptGG3WqTsoG+W9+Nc+5+2KVV90Z96Fmc/r77wzmrqD4ebcgnNM73MPzn+lX79v/dVXckqyLNpnod6++91j5dZbb5GsbMdg0AUFBdqqP1hVVdZ+FBIihx9+6JCmaq2tc+yrQaa8NWGCbxvfRhqDBmMQTvR2IafKFPDsCoezxoLtLgvjrmDAGHepozWbV5rCfasWWPvr3zxaUKDGQEi40LRUlmmFzZ3avA3S2dTo0W/BAD6lblI9PeWLZfjCW2+9JT847XQ55uhj5YrfXtFv6tNnrxbqPM/e3p64YY2s+Mj7Vtr+xOTO675gaN9vFwWIBnPxdFeoQaEIF0RoLtsltZtcXyBQKWi3+jfjPQNdQH2xXZHe3WFF3V2l6GEf7a8FYaQgOwFZCq60moJYvTmmXNHzhqmkolXQuUVnOI7XZrMcpKL35lxAdJcxERYaKgGBjos9Wh6aTKV7KHAuRiaH436ry3OzXcG31eZtlGZr4DdXrcVIXQ9Pd2TLoILoamC/dis4EhAeIUkLD9X73rD7IuNYq7YyH3rDtsY239NgH0WGgju4Nro895iKb1OFo5U/JCZBwhJ2j/eAbWb3rUYAxtV+AHi8sdBRge5vbAUE2FCRcgUzoUB/GRPhEVaW0SD68doBN2RGobLuip5DB0g1RjAU0I0g1mo9HKxaN4M+IhMC62ow58+KCmTlObK/IiMjJD197BbeT/llrqRPidLZEV58aIu8+NhWvY9gwrHnTNJ/ndkZhFc/8S1JyXTsC+gvH2gFppHt5GpAPJxXG4v6Dkppi82dr+dyXMPsgE1vzstAynzEBMe5zK2uLg1ADCVAOZjz8FCFxKV43OLtjg5wap2H3ZV58FsQUACk5feXkagBupK+2w/XRjwHfoHB+pljDY5frA9wFywHZMC56+Zw0vdOkttuu01vl/zmEpk2LVenU16+YoXceccfhzSDzBeffy61NY73L1i4UJ786xNy3nnnaoBi/rx5OhOLp0qKHWVYZC0kJDqCcOMVgwZjUHBsol4UUShvdpNmjJONp/21nCOxvdktn+CuFWM0oW8zLkQQlpIuB9z9PznsyU9c3va57knHgGuGncLqTkt1mdt16ylfLGOkVZe26DzP3t62rKyS+hrvUs8Ggr5vgFR5e9Cy3pzTjHtDwMEv2HExxGtctbACMnLssQOwL9ktJ+6Mx+06WBj/AIVwV5wzJ3qr37Glu9AXnrL7vDEcxysCQoMVERUhoaGOygUGI0Kq4EhDIRAtuCgoIjNDW6idxM3eT4JMARcZYShIuoJUYBSccF1AWvy+N/1N+8UiYINAzUCQzQH9HWvOBc09Cda7q0oFYN93dx3FexqLHF2bcK7BQGO2sKSJ3RUIjErvav+2bxj5HbCd0N/flc6WFmko7hss8lRcnKNy2GF+q13Q9QQK7oFRjmMQmVHIkHLFOUDnTsXqLzStGhWU6T+5SmeVwYwSGADRG9gmLda0sL7U1WkqaNYwIRjJPGCAMsJomXtQkkyZF2PKeF2y6pMyWfFxqaz5vFyWvFdiKkRdGkw49aKp5pzZf6t3j648Ve4zHt1lrGJ/xZgBgLEGWmrcL6OxxHGc6Bg0brrQ2HDdqN/h/YC0o62lqsTsm45AxWAhWwj6Ow8Dzkk4b+F8j+uoO4PtJjEWOHepbG9u0qClK9jvsP95Sivm8fGSmDS0bgBfffW1PPzoIzrbCo7FtLQ0Of2M0zVAcd0N18nMWZ53j2pvd2RpYUwYf8yjOo4xaDAG2ZUpMScNpKMOlbtI7HgQFB2rA0n5Wn+VTE/5Yhl7M0wPBAMVmN1VGp37GPZXsXQOPGCAIb/g/lsL9qbtOtjf2tnZLn6djhK4cyv/cB2v4x1aUdCagkIguijYFX1U2pD6bh7QgqK7LjF4HH1VUeDGezGAJKbM2vfGp2TxXz6Q/e/4j/Yndhd8wQByMNTK6Xg0UAG9X6hoGr1b+cOS3RfkxxPngjsyo5AhNVgYY6Too1e0sQPrC9kYU370a9n/zmfl0Mc/1H0VI+17EuTam83cP0FCwwOlvqpVlry3O3jy+lPbZNuqapwqZOrCeDn4hN1BLFunqdx0djjOy3Zlc6AgjHafcSE4Jr67kouGp/7GZ7KDEp5kgAwUgBiz9Hq3e3DawfD0PIzzlT3ukK8zJsaKwKiY7qzP/oIf2O/srii9YTrFo75ztN5++Ytf6oCF6KabmZkpv7zoQklNHaCrzABSU1IkMjJKZyYjB64JGjfq8jbIkhvO9ei27flHrHeRs9jkEMldEOf1bcq8uD4pkTR2tDXWmwqlFRgJDtaWUHcwlgLGVABX6ZG+MhaO1/KyCmmod7RgYGwDjHEwGtDlwO6bjlG/MWo5YDYADJIH7lKIbZjf/qvf/VCDBxjY1h7rA5UwtILnnPpznTavv4HNxrv2hhqtlIIddHQFhdHuKYm1IuV5S5U30PK49d8PuNyne9+WY0DBgp4joftKYYEjaIpxDTC+wWjAuQQDci655mwdqA7ZSHYWE4IIyIrBFKuYIm40AgdR5vgPCXVkptXX12mf57EoJcOx3zbUtknBVscxDggGvP637VJZ0qzjGxzxgyyZfaCjgSkqzhEIb6xrk7LCoTc0UV/ohtFhZRrgGtrduEdjwuYtW+S2W2+XTRsdg6Umm/PgUKZWXbx4sZx26qkSHROtXR6WfLNUrr7693LsMd+Vk086RZYucd3Nz5W4eMeUkegiWVExPjNDbAwajEHdETf//gdw8lR/g52NdUiJbLML0n5+2nfOHqm1v9t4TdkabgcdP1HOv3GO17fzrpst8w913R93sOzRz/1DQiQi1X1lzjkt2JnzRdzda8C5AoGKdYeVdbAnQSZRe511nAQEdkfwXcFo2mgRgv66OCGV2l3h3t8/ULp0YCi0muzOYhprxyvGMMCFWpmv6y49fCRoH9b2NsHMGYkYrd7A1J5IfcdAie6m03OGMQcwKv2yW34un150rHx5xWlaQdOuImZ9ow9yykGOdHhnzVZL40DH2liHFk1MiQqYttTddQ2P2/14MY0hRv93zewU1n7skrW/IO3eOX22qdQ6bszzmm7tYp/ufcMo48MVvMA4BhjPAAKtMTw84RxsDAgKMutt6H2fMXgZRoRfcv058vEFR8o31/1Eu+doBoI5nyQuXCxxs13PIjKcQkKDNXUZ2s32REVgvCncWi8fv1ggba2dEh4VKMeePUlSsyNkYo6jNbpwq9M+ap3bcRyEWC3crmAqQVcwir4dxAzG9H4x7ufKtwcdxDZGYG9P5NxFBxl1IXHeB+c8PQ87B/b31LIspnu2sxz7C8Jgv8P+5wkc0xs3btL7yA4ID7cCx4OwcNFCCY+I0K4JX3/1lVxzzTWy5JslgzpvhIc76nFYVmurb7v5jjQGDcYgzLOK/kxINQ1102KIi29/fZ2c4YDDaOau4IJhpxfbU9ONJSgk2/3RcVIJSxm7gxeNlqOPPlqefe4/8uZbb8idf7xTYmNHf1R+T9gXQ3QZQF9vV3q0GPaCPt5dVjotXuOuoowxDOx+9ij499eaO57V7bAulua80d90U5HWwGc4x7gbfA10/Ac3543IzCndLdp2f1YYa8crxjAoK3P00x7t6Y7QxUAL8qZyjykWUejENKCAgRIxYKK3MBguKmiYMhCtupoWPtkxuJQze5/vb9YOfJ/gaPcVg7EA1yj7t/QenNAZug/YvxMDAbdWuu6rj3EJ3GXlIPCAOd8B5xrnLlCY0hRZBjjWMOf8aMvbvl2areCdN9MJOgcbA8IizT7gOjCMfQMVpcHADFCYSm7n68/oOQdBy8gM300366nMjCwJtrqm7dw5NrMMnEVEB0m6FQxw9vmru2TpuyXS2dkliRPC5P+umCGJqWHS3Ngum5fv7kLgnJXTX1nR3Rg/yByxA+x+gYHmeHPfsm6Pa4OAXn/jJ4xnKK8g8AcYg8bd9Ln98eQ8DNheCOzjeEF9YE/kHLDUcl6U68AA9jvsf56yxw8IMOsPWQKDZY8T09TUJO+//8GQgoxJSY7zKpa13ZyrxzMGDcYgDBJjj1SM9FVXrSkYbXvAqW0sGLU5xiqc9hYzdZ4WnAaqQAAqozffcpO88ebr8trrr8qll/5mSNOQeAIXrirM2dvVpRe31P2Psp4hwLy0p5xykm4bRFbnzZsrPz77bOvZvl57cptcccLHXt9+d8on8unLvh0csGbr2u4WUkzb56pVOyJ9ioTEu64YoEWrqdRRkEemQTRGenbBeRRpvH68jFeQFRIqj0yaKi9NmyU/SkyWQLOe+uM8ynDMlLku09RxzkCFH9CPsGrjcr3vCgIGkdnTrb960vOGKfigUGoXpGAsHq95eY6+o8EhITJ5sm/n7vYGCozoggCYUnfCYd/T6bdw7tWW2CGMO6Ot2C3u+6NjNG4NKpiCVOz0hdajPWFbuwsSuYIAHFrgYbDTm2GfPtPs269Omy0PTpqi+3x/nEdqxzEd4+a3YO5vewwCdAvp75jHtdHluWdCtoQlOCrgLTUV0mRNYQaYeg7BCIifvZ/OyjKa8nfslPp6Ryp7amqaXhc8pVN4muMV68ueM703PYeGDr7VDhp35XX30x4NaWmp2n0D0y7uyPe8geSss86SF1/8nwblH/zzA9pfejiV7HScwyPjgmWfb7su4739zzzNOsAlAd0Z/AP9ZMvKGln12e6Ba2u2rZN2K4AbM3lm9/gEzjAuUHia+323GjMSmX0D2VDIinLFeRk4x43FxidX4gOD5LaMSXru+XVquoRb2Xf9Kf7i7e4yS8qBx3jdRcH5POw8to0zlPftWQUwpln9zt3X17HOHjumvyCADde7uu2O2ZmQfYdAuiv2LFve8g/wlxAfZE4hO6C+YXc3IW9lT5ok0dGOBq3q6hpzrh4fx4c7DBqMQc5TdEVk5EjSvofpfRtONJlHneE2Qtwb5gdPO+T4PpUIDFRkp8m2VJZK+YpP9b47hxxyiMyfP18DBbj4HnrYoXL4EYdbzw4fzNOqsz+YE3Xq4hMkaR/3n4nCG/pMjnYhbqTEx8VJRMTu1giMzho/TqZ0QSUXlQDARTJ5/yP1vg37OUbfRsuUK6igli//WCtd2Lczjjqtzz6OSnL60WdoBRep4eXLP7GeGdtC/f3lvORUyTaVqBCzHn6YkCwzBrhwYnpWFMwhIn2yTDj8e3rf2cTDT+4ejKl2y9p++1hjXWaaddf3vDHXMXif0VpVJpVrv9H7trF2vG7duk1aTIUaqcmZWcNb4B8IuiCgKwL26fTvnKapwyhoVa5zPdWdDa/tbx2hW0KAVUm2p2d0VrHma2m2Amyx0xdIbK8Cmrvjpz9oebeDVNE5s7x6r21+RIT8yOzbCB5MMe9HACHI3O9PyVfv6LGMY3qi2cd7F9yxnlL2/47ufxj3oXTJh9YzrqFCnHxgz+CWnnu+8wPH7B6m0Fi5+qseQR1keGAudDyH4ynnjF+5/f36PY84RbJOcB/MHSpkGpSVOlokY2NjJMuLim2V2TfasM+Y9ZW87xF9GiPwd9qhJ2pFxx1UErCP9hd0ijblDWSV4Xw9lADZYE2d6siwwrSLq1ev1vsDwbSM3znqSE1TRlB+6tSpcsYZp1vPDo/Vn5ZJY327+Tw/mX9okhx4XN+ud5jJaPkHpdpNAVqa2mXp+z0HO8S5HeNKAIKU6Ud+X+87m2C2q7ugPJSv/Kx7dgWUFVFmdIbjJPuEn3Qvo9ZUAu1r+liGM8yPEpNkgSk74dxzbGycHGjN5NOfyhWf6fSjEJ6SrgN9ujvuERTIPPb/rL8cnM/Drso8kHnsDyUy3RHYbyreYdbper0/HtgBowBzfUPDxUAqzTnUnhUI55je5x6cy5P3O8L6a3yalpsrMTGOAMqWLVuGNA3kWMCgwRiEC+rOt/6jEU0UKnPPvFSm/PBiiZ40Q1Oi5l5+jxZyUGnyBF4XPXW2LLj6IVOAP0wis6ZK9ok/kdkX3aqBB7QWFX/2hhaEvIF5SidPmmz9NXzQilb08cv6PVE4mXHBtTLv0nskYcEh+ltwIcs57Rey7y3/0FvSgsU9RnTfk1VWYe7p3ZUEREUry11PoTTWoFVi1/svaAUAF97csy/vsZ/Pu+JeSVh4cHe6uytFn74hDYWOii8qTs77OApE86+431x4HAXo6s2rpNSDfuNjAYIGadbMEICK1MSQ/qPmzucNpKlPOvl8LdRgfeIYmXXhjZJ+lCnwmmWhILjz7X/3ew5xf964RVMrcTwWffxqn/PGWDtel69YLuVljgrVlClTvGqF9TW0UNuBGrv1pHbrOk3h7g8CL/b6yvnBL/X4wLrEv7MuvEkm/+BC3ebuxkbAsVby1bu6TRCwmPWLG3VbYhnYttjGaNHx9JoCvQd3nPnz63XbYpm4eTLV3sSgUPE3+6NtgrnehZl9vz84hnEsA7rhzL30rh7H/NzL73V8tjkXViz/VGrW9zNglXkNguour7H7f1tf0mAKwjhP9YaBKXWsBPP9MY0mtg2mX8Qy8F1SDjhKZl98mxx4/6sy9czf9JiadDisWLlCMK5BhKngzpnTs3LXn+pNK6Vi2Se6LpAWjXMm1qO9PvUcmpLR776BcsqEw0+WA/74X1l4zWO6Hux9Acf9/CsfMM+fpOvKkwYKX5s+bZqkpjkqtphCbf36wVXEEJRHy+FwWvtVhSz/0DG9YmhEoJxw/mS58I758q2jU3VQ4gO+O0F+fe9COe68yTogImC2hUNPyhDnaRixvXa89W8NnOHckHn82TLzFzfodnG+HvR3fcV5qWzpR7pvoKyIMqN93nAui+o1paZCdr7xT+udY1uIOcckO11fYbI1NW9/sE43/f0uR+XY/GacdzD9bcbRp+s6wQ33F137uB77ERN77ita5vn4FT0P9y7zYJtg+2A7YXvhOo7r+WgE2AYLQQBcgxAonXTSuTLhiJO61wtuKA84q1j5hVStdQTMUU7rfe7BuRyZ0nZwejyaMXOGhJiyW2trq6xe5bhujWcMGoxRSFfFCRjpvzi5IIqPi/G8y+6RuBmLtHWq+NPXrVf3r3rdUqnP3ySRGVO0gIn50XFR1z5V5mKA1tedb/7berV7n3zyiaxdt25UBhDKe+mvsu2/jzoCKeaEhIGU5vzqVv0tmA8a041FpGWZ87i/nth1Tua9AKKW//vfi1JdXS2YamblylXyt6eftp4d+1DpLDL7sX0Rdd7PY6ctkLqta6V6g/sUelyENz11p2NKKXMRd97Hc3/82+6KC0by3/jX28fNBbjZbMsia8A3aDPHaWE/6ec2nDcwuj5SIFGQR6YG1ieOEVQ8tTBiLsBb//2gVmD701iwTTMX3J03Sr98R3a89g/r1T2NpeMV4xqsWL7CfE6XJCUmyIL5rruxjAT8Vjs7Rv/2IvsF6wrrLOOYM/T4wLrEvyi4Yh1ju+b97y9aCXQF26rki7f0O6Dwhm2JZWDbYhtjW2ObewPXKO3DbI49tKxh22KZuM346TXWq9wrbGvWaeJsu8x+2zTAvoBjGMcyjmlA4KDHMR+frPsnuoJgrAf8Xnc621u14IrAQe9rLNY3gmubnrrD5WBkCJatuucyR0ug+Tx8LipUWIb9+xPnH9zdTcLuXz5cPv/0Mw0iI6PGm6ABbH7mXkfXGfwOc87Eeuxen+ZvpKnXeTDmBs4vqABhPdj7Ao772GnzHevTVCw3/+NPXjdQDNXcefMkOiZGgyqrVq32uAxTUFCo07ihL/JIeuUv22TZ+yXS0d4pAYH+kj0zWr5/Ua4OSnzyL6bowIfIREAXhbx1jpbL9GlRcvj3e45dUL1uieS/9nfH9cCcI5BJgu1iXw9aKks05b4/2557RCpWf6n7Bs799nnD+ThB95/Nz9w3blrFW8w5ptTp+grbmj0rG2DfXffIdVJvdefF8ZFz+kW6TnDD/ajs6bpeXNGpST95tU+ZB9sE2wfbCdsL13Fcz8cTXHsK33nO0WBg9pXcMy/rXi+4pR3aM/sR5+Yt/3mg+1ze+9yDcWvQoKmZi+MQGihmTHeMeVNeVibLlrkvy44XDBqMYThprH3w9zrWgF3gQCEcUfplN/5M6swJ2pOCCEbBXXn3ZbLro5c1Cgg4qJFGhqgpBinCcgeCiumVv71SpxzZtMkx6NpIQsvON78/S4MlOoq2feE3FzP0r8UFa+t/HpSvr/7RgC13e5K33npLfnDa6XLM0cfKFb+9QrfTeIGLxqan75I1D16tLdT2NkXrSPHnb8iq+64ylQRHZRmvdVW5xHb/5vrzdP9w3i/sfXzrcw/L8lt+MeIF1aFA0OCJ0mLJa2mWFvO7/1VRKus9jLajIrf8joulyhQY7Wn59Bipr5WyJR/KN384W0pMhX8g7c1Nsvz2X7k9b2x48jbdJu6MpeP1o08+kbraOk0zxqjIo6ly1ZfSVusYsAyV0ep+xpWwrX/8Rtn2/KMa6MF2tNc7/kUAGdt16Y3nS+H7/9PHXcFrN/71Dtn897t1G9rbA9sW2xjbGtvcG9iGy2/5uSN93xR0vbWioUH+afbtdrNPbDHXoH+Ul2qAbCA4lnFM5730pLlf1P1bcD1sLNyu++equy716LpW9tW7jutsr/OPfZ3tL7im3+Pmn8v6J2/VdYE+yDZ8F4y4XvLZm7L8tl9qcHM4YcqxNWscmR+TJmdr67qnsJ5W33O55L3ytONYxf5ltgOCJnkv/03XZSuCQ25gP1778DV67qnL36jHN94PWKdY5q4PX5IlN5zn6NYxwvbZZ6EEBQZqUOXjjz62HvXMXx5/Qr534kny7LPPmp80tHn6PYXpFZ+7f5P89ca1sm1tjQ5yaH90W0unBguef2CTPHDZcvnofzu1O0NgoJ/sd8yE7pkUbPb1oHojMlEc5UUcqzhmV5jH7XMRPsBVeRL7xhpzHcY+rmVR+zg3r8e5CPv30uvOMeeg8ZHFB1iV/ywvk+UN9XrueaO6Sj43v8VT6Pax7MafavASx73zuQ/3cQ7C+XqTOdf2hmMLZZ7V91+pXR2czxk47+D4WHbrL3S7jUf55nyx+Zl7tPuafZ3qT/e53LxPu8KY7YH3NVeW6iC/O179u/VKx7obSJmpnNszJiUmDW6sHYgeYEwGTyxcMF9SUlPN9+6S5ctWSHHx+CmDuuP3h1vu7nr0/j9afxINbOqUKXLDTTdKVFSkPPjAn7XSSjRcEIFH6h4GPlx558UuW/3IN9A/fJ526cjQytLy2y60nhn/br31Vtln30WannzVVVeP2gUcqexI5Uf3hJLP35L1f7nZemb02ccaKgMr7r5EpwrcE2V+90yZfOoFWsDf+OTt2nVjT4C5xS+99BIJDQ2T5557Tp544knrmb3X/AUL5A+/v1qioqPk9Vdfl/vuv996xjv2+eO9996XO26/w3p0/Jtx/h8k5cCj9/hjnsYndFWYf9m9Or6MJ9fL/fbbT6763VUSGRmh45d8+P6H8uVXX0p7R7vOmoLMw4EkpySbY/x2mZg+UV//+9//QfLzHQMqe+Nqc9457LBDpby8Qq675loN7I53zDQgrx1/4vGSkBAvpWVlsnKl61RYIl/AwDj2yOyIQjNgQIP1yiuvSG1dnY4uf9xx37UeHXkYhRwBA7TglaK/MJGPIJV+5apVgpHDDznkYLOvezbD0p7su989Vqdeq6yslHfee8961DuHH364zJw1Q5qbm2XVyvHfL9mm04paA6y21ldLa9X4TAOnPRcGhQwIDdMMhPqCgTMSly5dKqtXrdTWfYzvctwJx8lNN98kt912m5z0vZOsV/WVm5sri/ZZKN8+8gi59DeXSGqa49xZU1crBQXeT9GKYOVCc8P3+Oabr/eIgAEwaEAew6wJP7vgAjnyyCM1/eeN117bI9JtaPSg0IIpm9zBrB8hdh/lNV9bjxJ574svvpAl33wjfv5+cuDBB41KhQqz4SQuOFjvI4W1qtfME0RD9cJ/X9AuakiLPebYY6xH907z582T+fPn6RgGH3zwkaxbu9Z6xnMHH3KwKff8VAd+Xr5smbz9dv9jAIwl6B+P66u7/vWYmQvnJKjbtt6RHk40gjDjio6T5ALGfEAZEGPOtDfU9Tu+lQ3H+u233ynPP/+8lJaW6gCEnrjkN5doYOHKK6+UhYsWaX0H7/3gvfcGNY7bMcccpdlNqCP9z5yT9xQBi7999PVLv/rc+pPINUw9dMcdt8mBBx2oAYNn//Oc/Pvf/7GeJRqcYHOxmHvZPZJ1wo8lLHGi9qkMDI/Qwc0wwn7q4uO14IMRzLf++4FxPYrueIC52FMPOlaCImN0lPPiT1+zntkz7Nix0xQEWqSkuERqauukqKjIemb4YHCn0KQ0nWEAo+iHJadrP++db/9HaqxZAMaKtEOOk9CEFB1HpPiLN3U8nD0Rpg2Nm7mPDkiJGRYaCr0bAHIsKy4pkcbGRiktK5WG+nrZsmWrtLcP7yCMY9XMWbOkobFBli1dbgru/9VMAW9cccVv5ayzz5Lw8HBZsmSJ3HP3n0Z8UMShQB/wORffIZNPv1CiMqeY62unqYiFaCAh67izze1MCQgO1QEqcX1lJh+NtMR5B8m8y/8kKd86UgLDInVw4KCYOImfs79M+8kVEj1pur4Og0Lu+uBFvT8QnO+WLV0m//vfC/LPf/5L/v73f+gNWQjuHHf8cRIfH6+ZAThP5OXny1N/fUpefdX7MlBSYqKpM6XLtm3b5PXXXvd4itfxgGMakEcQdbvrrrskODRY/vG3v8sXX35pPUM0eM596N3BIFrrHrl2wNH+aej25DENRos9ToAzDH64+t4rPRqobyRxTAOi3c4771z59pFHymuvvqqNJKMxc9RQuTr/OEMgHgPzeTI4LpGvIVgw7dyrdLYnl5BlumGZrLn/d2Puerk3YvcE8ggulr/5zW/kl7/4JQMG5DNoySx45zmtoPYeFV5H3H7/Rfnm2h8zYEB7BJ2p4MOXxmTAgIh6wkCSP/rhj+SZZ/45LgMGgOtr5ZqvdZYEe3YQVMRwvfVmNh2i4VC1cbns+uBlaSze0Wf2GW9nwqHhx0wDIiIiIiIiInKJmQZERERERERE5BKDBkRERERERETkEoMGREREREREROQSgwZERERERERE5BKDBkRERERERETkEoMGREREREREROQSgwY0YgKDQyQtJ1dCwyOsRwbJz8+6Q86CQ0IlddJUCQwKth4ZPnEpEyRxYqb4BwRaj/Rlf58gs90HIyAoSCZOnSEhYeHWI7uFRkSJn79np6+QsAgJCHT/PYmIiIiIyL2Axd8++vqlX31u/Uk0fPz9AyQlK0diklKkobpSOtrbrGcGhopnXPIEqxIZJg011SJdXdazAwuPjJasmfMlMDhYmuvrzVs7rWf2HNGJyZKaPUWiEpKk3sv12x9UuAMCg6Szo8N6BJX2SEnLmWa2Qac01tboY9EJyfqZnZ2O1+E1E8xrYpNTpcG8pr21RR/3VIC/vySkZ0lierY01dVKW0uz9YxIcuZkSZ00RULCwyUqLt7cElzeYpNSNXARGh6p66Src8/b7kREREREw4lBg3EsLCpGpi7cXyvirU0N0tLYYD3juaSMSTJ57iJTsUuT2ooyUzFst57xPf+AAG2hriwqkLqqCuvRvlBJRWUwJiFFkjInmYrndPM9syUqPkFblwOCgqWjrdWr39ve3i7tptKJ35mSnSNdHZ3S3FjvVeBhLMM6S86erEGRXVs2mEq2oyLvSqSpZIdHx0hzg/n9HvDz85MJU6aLn/nPXuf4nHCz/xVt3ajBBDsrID51YnfAIjohyWyzRCnJ32b2rVJ9n1fM5+L9TbU1us84w+OA31pXWS71VZUubwhoIEhVV1kmDbXV+h4iIiIiIvIcuyeMU6jIxadO0MpiQ22VVtS8hfRxtAJDZXFhj5bckRQcFq7dFrJnLZDs2fMlOXOSxJnKfXRSsoRFRknBxjWy/suPZc1n75t/P5Ity76UmrIS692e6erskFpTcdy2aonkr1sh8RPSZaKpCCOQsSeIjI2XiOg4sw1b9H7a5KkubwjAZOTONhX8mRps8iTFH0GB6pIiDQrY+0tvEdGxEhgYLDs3rpbWpkbdP8MioqTF3K+rKLNeNXr2pAAREREREdFIYtBgnAoODZPIuAS9X1NaIh3t3mcIRJjKJfqLt7W2jGrFDpXMoq2bJG/tcslbs0KKtm3WW215qVZYm+rrHKn2Pqr0ofU5b81yzdRACvt4h64DCROzdF0V520x625T9zrsfUOrPAIlrc1N2vLe5eE6bayrlqaGOomfkCGBvcYHQOAqLnWi7Nq6Qbt+6GNBwRIaFa0t/K2jFIwiIiIiIqKhY9BgnIpLnaD9/FGRQwu6t5BOjtZ2qCkr1hbhkYRBEUezwo6sCoyLEJc2USu941l8WroEhYRI/prlEhwS5nbgQQQX0N2jy/xXvH2z1KOLiIdBAwSlmmqrtftK73dExMRLfWWFBiRsIaGO74HHfSU0MlIS0zM9HgDRGYJsRERERETkPQYNxqGgkFAddA6Qpt/R5v2Ad5ExcTo4HCqDNWWD6G/ugbDIaEmdlNudGp+claMj+2PAvqyZ8yTT3BLSMqxXewcV0oQJg6tAAlrb0T0DAyQGhw1xNodRhGyJ+LSJ2re/sb5W6qvKNTDQOxCC9ZScmS3hUdFSVVw4qO4slcW7pGjLxh5ZLeiGgABMZXFB9+CDEBETq10CENRyBa/D/uC8/TCrBgY3tPcXDOoYYh7DstJzZ8qk2YskJWuKxKdM1NfjObzGfr2rm73P+fnxVEdERERENBh+f7jl7q5H7/+j9SeNB4npWVpZQnYAWpe9Tf9GhTJjxhyJjImXqpJdWuH0NE3dK6ZC6W8qhfao+6i8TZq7SAe1q9i1Ux9DYCEmKdW8tO/nh5rnENioKS+Vrk6n7hdmuZGxCdq1omLXDinO2+r1qPgYR2HSnIUafCgvzJfi7VusZ8YPfPdMsx1LC/J7dC+JT03X31eSv6V7vSA4k2oq0RiAsnDTWo+7s6Byj4ETe0NGQ3hMXPe2CQgI0jEoYNeWjRKXkqbbu766b6YBMh6i4pM0cIP9oCR/9/bDvtmB/cXsj3g+Y/ocaWtu1q4PzjA2Q1BoqOzcsLp7/wIM8NhpfluzPWAj9rk5C6RsZ75UlxXrY0RERERE5DkGDcYZdCvInr1AB5kbbGUXWQZZs+br/fy1K6S+pkrvDzdXQYPegQVnCRMyNPV++6ql0t7Waj3qG8jUQIUblWisU6yHwWRsjBZUrlFxRqZJ7+4paL1PnzpT2lpbNXCAaQcx0GRDdZUUeBEwACwr0FTysf7twBJmn0hKz9ag1fbVy/pMpYhAUOb02VJWsEMzEJzhO4dERMiOdSsH/B4DBQ2w3TBIpnPAC/sMplgs27nd3PK0KwWyITjVIhERERHR4DBnd5yJjk/SgAEGL6wq3mU96jlUAuPTMvTfusoKaehnar4RYSp8vQMGSKF3TlsfDpGxcboOkakQEBAoYeGR1jNjHwIGmGGirDDP5XgWqCBjzAIEh6bvd7BOl1hXXuZ1wACwLKwnu2KOKTNjElOkvHCHBhPSp86QnHn7aHaDv1mPEBUXr636nZ09tyuCAMgOwPYeUmaLn5/+gyBP7+V0dXXqII+VRYWO58yNAQMiIiIiosFj0GAcQeXWnvIOg9ihcuSt0IgoiTAVZlSoqsuKRq1ChaAA5s/XMQ2sSiD+xTSSyKRAxdQdvBddKwYbWMBYBpg5AusQMyk0N9RLZPwYmUXBXgdzFujYFb2h1TwqIVHT7e2ZClxB5VzMakVXAGQJoBuBpv0PAbYXusbs3LBGux20t7dJweb1Ur5rp6ROdowtgAEuQyOiNQMiMDjYbKPdU1riuyNwgGkhXWWWDATdMTBGRkRUjASGuB7s0eUxYT43NjlNMyCIiIiIiMg77J4wjkQnJGm6NipceWtXSJOXWQKotKHVGa3FDTVVsmPdKlOR9K7leSjs7gmtjQ3iFxgo5QV5ptJeKynZk7UCjGBGSFiE1JQWaUUeYxpgloi81cskIi5OMywgJCxSws1rK3v1h/cUuiZkTJvV3TUDFcqkjGyvx4dA0AKD8gWH9a3cD1ZYVKxmWgC+C9LvEdjwFMYySMmcLFGJydJQWS4VxYWSnDFJ+/qjOwFS9jH+gVfb3ew3Canpmp2xa+tGzTzAOAdpk6d1dx2Jik/UcQqwTyIghRk5ksznVhTt7O72YW9/bN9S8z0GYndPwIwNbc1NGpBAdxxkMOBxTP3Y2OsY6D3WAgQFh0qUOXbwPXeafR4DRhIRERERkWcYNBgnUEHNyJ0t0YlJUlteJjs3rfG6soyBA7Otwf8KN6/XQRBHErIcsmbNk5aGev18VD7tiqGpCUrBpnU9KrPOYxo4Hkff9A6tsGbNmCdF2zfpiP5IQfeUPQgk7Fy/WtP10aKPQRFRofZ2nSAlH2MyoNXdm+/hS9g3wiIidZwBZFBUlxZrtwtAcKXWVKCjYhN0ZgJUvAGV8LrqKmmsrTSV6TazTRq0so//tPuAtW9hfWHGgpbGBqksKex+HNsA26dg4+4uDwgKYCYHdF3AMvB90H0C7wVs/0mzF0jhlg1SWzHwjB3ICEk3+0ZoRISUbN/a/fkYy2Cy2V4l+dv7LKd3MIOIiIiIiIaG3RPGCaRkR8UnaKWpsmhnd+XNG2i1R8AA0+C56gs/XFCZxOB06PuOz8fggwgYOMOgff21fuP3ImBgQ6UUWQreVtTDtSU/RqqKCrsruxjID5kXCRPSJchN2rs7aAXXyukIBwyQNYIxCyZOnSG5iw4023aiDi65/suPdNBAZBWga0BqZo5MNc/jN25c8rnkrV0uDdWVGjxAN4j03NmSPWuBTNvvYMmYPltnq7AhyBSbPEGK87ZoxoC9zyHIkpw+WWpKS6TTaT9E8AJBHLvrQUdHm7b82wKDg8xr/Pps+97s/WXqogM066K6pLjH5/ujy4Ofv3QwKEBERERENOz8UfmgsQ2VsdiUNP23oa7a7dz3/UFFD2n5gP7mIzFTACrgqdlTJXffAzV9HdkRqMw6QwUTo+OPBGQ1xE9Il6a6WqmvqrQeRX2/y1RMizS1H5XksQoV/eSMbMmcPkdSsqdolkNJ3lbZ+M2nmrmBrhY6+F8v5QXbHc+ZSjd+9/Y1y2Xdlx/J5qVfdGec4LZj/SoNntiVc2wrZCwgMOIsMjZewqKjdbyE7kCC+W6aceEUEED2QpjV1QJCwyM0ONTmpgtIiHkev23avgdJXHKa7Ny4Vsed6K07W4JBAyIiIiKiYcdMg3EArb/oL44KoXMLuTcwiF1waJgOFIegwUgIMd87fsJEaaqv06n5GmsG7puPdPjY5BQNkPgagiYR0TFSmr+tT1YD+rnXVZZL4oSM7rETxhpUyDEWwI4Nq3V2BGSLeJKC39XZN5CACj+6HbQ2NWrgALfe+xUCirEpqTrAYfctJ1fHf8DnhoSHdz+eOXOeTJ63r3YPsGFMBmQrYJtiWRivAWNVuMsQ6DSfHxwaLs1NDbJ11RIdbNFV/gaWic9npgERERER0fBj0GAciElK1opXc2O9thh7C33AETQA9AF319Lra2i1RgW9YMOaPnP59xYRE6uVz+zZC2Xi1Fk6wKCptjqeNKLiErorqBiUz1uaUp85SVvUXQ2Ehxbz8sKdqClLqvkMzFQx1jmvE1e3xPRMza6ITkzu81yWqeRjfIz06bMlIjrWWmJPOqBhaYmU7siTou1bpGjbZqktK9WAzo71q3VQRDymgxqaTVVVWmS2ebX1bkeQA1MgBodFaHZAWGSUNNZWu8yGAHRbyF+/UvLXrNBghjvosoBxMTo7uzzqThISEaldHoiIiIiIyHsBh3776OuXfPWZ9SeNNWhVRf9uVGJRAfdmJH1bbFKqxKdO1EpZ8bZN0oFB+0aCqRxidHu7jzsqsJi5oclU2tFFwIauCwhkFJnvVlVcKGU7t+trUDlEeju6DiBVvr66WrMB0Fc+JiFZB/zzpKUdlVxUlP0DA01Fd5O2aLuClmsEWLC+/AP8HRVgNxXcsQDbs9GsR6wTjBPRUF2l/6ILAm6tzc3mt6RIpVmnpTu2dz+OG9YzHqso3DFgEMnugoD1mJKdo8Gg6tIifQwwPSZm9ijeurHP9kCwJjw6WsM/2GYIMPS3zdAVArMjAD4Py8b2qqsq18cwY0JCerZ+PrYXgkzR8UlmP4nSIAoGfESGC4IUmO0hNtGRKYGgVF1lRfeyiYiIiIjIM8w0GOOiTaUJ/cVRacYAdt5CsCE2OVXvo3+4y3nsxwFUXJ0HQvQGshYiYuKlcPO6fjMe0AKOkf8xZkR8WoaV7TB2YZ1gbAp8b2xnZA9gcENkS7gSHhk9pBb3SLMO0VUGwRobKucJEzO0Et97vApA4AWV+aTMyXq/pckxk8JgBYVFaFYDgiXIYkAADAEFZDzglr9+lWMwyC3r9W8M4tjW0iKVxQUeBZiIiIiIiKgnBg3GMEw5Z1f4UVFDH3FvRcTGSXh0rPZXx8j27lLD91TIYkjKyDKVyA3SXF9vPeoeggq7tmzU7Ah0U0hMzxqW8RV8LX5ChkRalXPMDuFKU2ODeT5bB6ccTPCgsb5GB15MnJgpufscKOnTZklG7kydzaCyqNB6VU9tLU1mnbZKSGjYoGf9cBaTmCSNNVVW1wfH9JCewLSSRERERETkPQYNxjDMuY/uCUhDry33fvBCVHZjk9J0EDqkrjcPYtaF8Qx99dG1o3Dzhu70dk801dVoVxBIzZ4i6VNnjuk+8VEJSRoYqSktli3LvtRxA1xBpkbx9i3S3t6qlf7U7BydgcFTyGrA4IsYNHHL8q91v0JACsGtKQv20zEjMM2jM+x/4TFxui9GJSQOKQCDz8GUmVXFu6xHiIiIiIhouDFoMEahbz2mB4SasmKXqd8DiYiKkaj4BG3d9UUr73iCVPy0ydNkl6ngehMwsFWY9VW8bbO2ZmMQyamLDpDEiVljboBEZFKgtb+8YIcUbOk7A0Jv2AfKC/J1/AhkJ+Qu2l+DDt5AICt71nwJDAySTUs+11tNWakkZUzSmRVsGL8iOWuyrseirebz0jJ0m3gTqHCGIFpDbdWgjgU/nuqIiIiIiAaFAyGOUdGmMhiflq7p10gJH2j2gd7QoouW3zBTeUZFq2LX6AcNXA2EqI+lTpSwiEhTGQ1zDGZn3VBJxDSR9qB23c/FJugAe+4GQow0zydlTZKCzeuGlF2BsQ0629r1s/E9McVgQFCw9sv3NC1+OCGYkZYzTQq3bNCBDaVX1xOst7jkNLP9q3sMPAlYL53tHTqzAgYxbKypHnBARFT2ERTAYIhlBdulJH+bY+BCsy4QmGmqr9GgCtYbujBg/yvYtFaDXtjmGNAQGRHYtzETCMYa6A3ZIRi4MDwaAa8k3d5NdRgLoVHiU9N1IEV73WMfx0CJoZFRuv907x9Ot8i4RB1QE5/Xex0QEREREdHAGDQYgzC9YsqkKRISGq7dEjBNYO8K4UDCIqIkJStHU8hL87aaStvId03A70B6P7Id8Fsw5R4qqLXlZTpfP9gVP/yN1m/nEf4xawJaxTE7gPPjOnuCqexWlxVpf3lnWFZkbKyOS+BtoMUVVHZbm5qkrblRdmxYbT6/YtQDBlhnKZmTdbyKnetW6XcEzBowMWeajm2AQEeMWdeoUOM7u6owoyIdEBhgKupxuv7dVaoRCEBlPylzktRXVkjR9k3S0tB3QEMMsonAw8TcmeY9wbLTrC/noI0dhMGMDpjNIzohWR9vbjTLsvZvvL/WbG90Q0iYkG62dbuU5G3TQANmbWh22o+xHjA7Ql1lWZ/ZIewbfhOCK86BKiIiIiIi8hxzdscgVPgjTKUJmQGoOA8mQyAmKVkr7agY1pvK1mhAqjwCATVlJdrVAuMLYEA6jBkwFKhfYoyGDlMBdYYsBqwrjJqPFnBfqSkvkeK8raOeqQGYSSNtUq5mD+xYv1rHu7C1mG2NwAYCLWGRMdrtANvA3TSd+D2lO/KksaamR2XchjEEkjMn61gECFxtX7VU14Wr9YAKfEJahkyciq4S+VKwaU2P76bMhkO3jx0bHc8hU6S2oqzP8vR77dwuJXmb9TOxbPwOBI+cYQDGoNBQ6y8iIiIiIhoOftfcek/XI/fdaf1Jo87PT7sUBAUFSYepPGFQO28rqwgWhEVFi7+fv6aAo4V3tKE7wYTJuVKyc1uPWQwwcB5anjGd5GBmh9jbYNt2mv1hoH0iKDRM13eZqcC7GxjRhkq5zqrhZTaLDd1I0K3Am7E30N0Dv8GT2TyCQkI02NT7N2PcD2SylO3MczuVKLIk8P3QfcLb44iIiIiIiBg0ICIiIiIiIiI32D2BiIiIiIiIiFxi0ICIiIiIiIiIXGLQgIiIiIiIiIhcYtCAiIiIiIiIiFxi0ICIiIiIiIiIXGLQgIiIiIiIiIhcYtCAiIiIiIiIiFxi0ICIiIiIiIiIXGLQgIiIiIiIiIhcYtCAiIiIiIiIiFxi0ICIaBxITkmWRfsslPkLFkhsbKz1KBERERHR8PK75tZ7uh65707rTyIiGisWLlok55zzE8nJmSyBgYH6WFtbm/zl8SfkhRde0L+JaHwKCwuTabm5EhAUIHW19bJp0ybrGSIiorGFQYNxbMb5f5CUA4+WzrYW2fjk7VLy1bvWMyIhsf/f3p0ARlWd7QN/M9n3fSUhCWHfVxFkFZRNrVtd6lbEVutSbb9WrVp3RP1UrPq5VrGKtv27gIpWUYoKigv7LpCELZBAQnYSsv7Pc+beYTK5k0xWgjy/dpybmTvDzL3n3jnnvee8J0aG3P6MBCWkSPHOTbJu3o3GM9TVeHnZxMtmk7raGuORzhcaFibz5s2V3qoCu3bNGrn77r9KbW2t8SydCKmpqfLgQw9IYmKi8YgdgwZ0IsSPnip9rr1TbL7+xiPHZb37kuz9ZKHxF3kKPYfuueceCQ4O1n/jnJt7MFcWvv2WLPt8mX6sJdADaa46j/fq2VNWffedPHj/gzyPExFRu+DwBOpUAVHx0vfav8iYJxfJxFe/kkmvrZCJr3wpZzz9oQy8aa6EZQw01vz58wkOk4xLbpTTn3hXYkdOMh49MS666ELJyMiQktJS+eCDj1pU0RxxZrzc+vRweeT9cfL4RxPksQ8nyIP/Hiu3PDFUTp+eYKzV2LC/PK/3/4SXvtANEnc8Xe/nZuzYsRIbG6uXc/bnyLxHHpUZ02fKrJnnWAYMzO2E2/gXlkr0sPHGMw1hG2JbYj0EHqlzYFtjm5/2yNs6qAvdZ16pHxv3zMcSktpLP9acqEGjZcifn5Zxz/3Hsb+xP0c9sEASx88Sm7e9Rwp1jvbar+Dt7S3dkrvJ766/QUaPPs141HNFRUXyxdIvdGBx2NChcvbZZxvPEBERtQ2DBtQpcDW9+4wrZNTcNyVh3Ezxj4zRj+nnVEXJNyxSYkZMkMG3PtaiStbJLGnieZIy/XLxDQkzHjkxEhISZNLECbrCumP7Dlm1apXxTPNmze4hF9/cW7plhIiPr7E/vUQCgnwkpU+Y9BkZrR+jlouMjNBDEmpqamTp0s9l+fLlHgdzvP0DJW7EROMv+jlAkHGQOj8Ouu1xiew3QnyCQoxn1A+5r78Ep/SUPrPvlGF3vyC+waHGM+0nf/03subh62X1A9fqW+a/npW66irjWWqNNavXygXnXyhnnzVNbr/9Ttm+/Sf9eFh4mIwZO1Yvt9QXy5bJ/n37JCAgQGadM1P3IiMiImorBg2oU6Sed42kX/gb3ZhBN/zDq7+UDU/+UVc+Nz17lxz64QupPVZhrE2dadasmZKQkChVVVWycuUK49HmpfYLlxFnxom3r5fUVtfLuuWHZMEDm+Xv926SZf/eKweyyqW+zliZWiw+IV7f19fXS2VlpV5uifDegyUgxn1PDzp54Lw58OaHJXrIWB1srS4tkj1L3pC1D/1Wn0O3vzZPSnZtUmWlTrwDgi2HELQVzs/l+zKlbM9OfasqPqIerbc/SW22ft06ee/dd+Xo0aP67+joKH3fUqUlJfLll1/rYGNaWpqMH3eG8QwREVHrMWhAHS5m6BmSMu0y3aMAld0tz94lW57/qxRu+VFXPgvWrZCtLz4g3//lcinY9L1qaLKl2VlwFeq000aJzdsmOfv3y4qV3xjPNK977xAJDPaVurp6WfXpAfnnU9tl2+ojsmNdoXy2cLc8fesaefdZ+5Uz6nz+UXESy94GPws9fnmDRPQeqpdLMjfLj/f9WrLff0VKsrfpc2juyk9k7SM3yqb5f5Zj+bl6PTr55OXmSUWFPXgeHW0f6tAaq3/8UYqKisXPz0+mTJ1iPEpERNR6DBpQh8JVsW5TLhLvgCCpr6uVnGXvScFG6+7vVUUFsu2VB/XVLOocuArVLTlZX83eumWbvkrlqaBQX/HyFqmvFTmSa30l/GjpiUvueKqqOVomlYcPiJfNW+JGnSk2vwDjGToZBadk2IM/Xl5SXVIou/71f/pcaeXI5h9k099uN3oB0MmmorJSamvanrhw565dsnOnfSaG1O6peppWIiKituDsCV0cuqP2uPA3EpiUphNcoYto4bY1smvh07q7v6ezJ2x4/PeSdv61kjj5fPENClUNvVqpLMiVfZ++LQe/WqK7tXaEiN5DZMDv5+l/82juPv05jhXlG8+2jDlbxNHcvbL+0Vv0MIfUWVfqx/xCI3WlGtuiNPsnyXz3Rd1d1xWCGFGDT9f5FULT+9i78aoGc015qRRuXyuZ/3pOKo/kGWs3hu7e3SZfINHDxqltHCveAYH6cXyWSvX9Dn77qeQs/X+WMyEgOVaPi683/mpeTVmJrH/yNn0l0QrKA7578tSLHeUD+7Gq6IgUrFspWYteUd+r6SDAHXfeIVOmnKm7xM5/ar589dXXxjPNGzk1QS64oaf4+NlkxQc5suTVlgV7kLgvvNcgy/LrzJP1MN4bZSFu9FniFxape7VAbWWFHM3bK4d//FIHrJoaAtPWsoFcHEP/52n1WUIl850X1LH1T520LnXW1RKa0b/B/sn79j+y+6M3pK7K/bCDBx68X8aMGePxbAnmdkK5yf32M+k29UI95nzryw/p3jwm5yz4eWq9bX9/2HjGDp8zasgYSZp0voR276W3rd6exrYo+mm97F7yumW5NN8b233Hm0+pMv8rtV16S31NjRxS+23nW09LkjoHdT/nKn1OqD5aKnuXvKm3lTs4h2Eb4lyIbWse52X7s2TPh69LwYZvjTWbhukrb/39zRKfkCB79uyRJx5/QjeuOsvx89fx86B5TmjqWMd5PnXWVfp7Y1gXemm1hVkmQ9S+Nc9fCDQVq/NltjpnuDvfuHIuRy2ZPUHn2zhtis5tE5yYKt7BIfrYM4+Nwi0/yO7Fr7k91ly3WU1pifS88jad5wHvjd+2owd3S9Z7LzdbNvwiovV7RQ8dZ/9dVJ8BPTX2qDJ5ZNN3jt9Qq+PE1Nr9agUzpsyd+7DExcfJrl2ZcuPvWj/r0eWXXy5XXX2l2NS2feedd+TVV18zniEiImo59jTowtLO+7UMuHmuTnCFijygUhSjKjiD//SU+AQG6cea4+Xjo9fvriqeqBjpx1QjIDCum/S+6k8y8NZH9ft2hNAe/cU30J6wq3T39lYHDBrykoDoeBl257M6kaBfWJSuUAMqsBjLjWCFKz0uWH3XQb9/VK+jG4WgXusTEqZnMBj18BsSf/pZ9sddoFE48t5XJWXGr1RFsrujwg3YP0Hd0iXjl7+TEQ8skMD4FOOZjoHgBRKeIfGZc/lA5RtJJpPOPF9GPfgP3Yh0B0MTevbsqZdLSkokM7Nljf6sTUVSUnBMb/p+o6IkKv7EXNHGdh9+94u6LOgEm0bAALCPQlP76Ao8ery409ay0YB6Da7y4/gdaL6fy/6JGTFJHYvHE9k1pa6uzjHO2VOFW3+UY0cO6e8VrRqJLYEyNfDmRyRq4Gk6QaljexrbAglLh9/zsqSdP0d/Hys+gcHS59e3S2haX72OzddPN6z6//avkvaL2Y7zEO6xnTCEyQqOtZHqeIo/Y7r+t/EZAPsnLL2f2r7z9Gws7j6Hs4svukgSk5LEZrNJenq6zL72WuOZrgvfSw9LUN8bgUg0qFsL79X76j+pMv6YLpPO5y8kVYwePEaG3/WC3uYdafAfn1Rl7A59bsI+Nfcd7nFsIJiAYy3hjBn6cbfUfgzPGKTOgy/q30TzNwzlNTg5Q/rfcL/Ej3E/ewDKzwj12oSxM47/LqrPEBCbpLcTgux+IeH68ZPRtu3bdc8FDD0bOND97wAREZEnGDTootCtGJU3NDZwdXT/5+/opFdIHoieBoHxyRI1xLPsyriiFN5zsJTt26WvUiFx1u7Fr+r8AqiMRg86XVfcOwL+bfwbUL4/S9+3FYIlPS65UYKT0vV3QhIwfKd1826UA8s/sLyajC7aaGCgYgzlB/fIjn/8r+N1uAqNq20YRpFx2c1NNrZxdTR//UrZ9spD+vW4IZkjrsDiSlVwUpr0VQ0v10DMwa8+cKyPm3l1FVeDkYnc+Tnc1j3+ezm6P1uv4wy9SAb94QndIMO/hx4V5n5F+cj77nN9JRYVcDQA3SXDwxSLUUayrYL8I7J/f45e9tSRvEpZvzJfamvrJSYpUM68pGMDJVZQye95yU36aiCuhJdmbXWUB9x2vf033dMGVx/dac+yYYroM0SSz75U6muqdZnE++D98NlQZtWHta/YhMAAexAGCc3yCw7rZU8dK87XXdUBjf+WJkTE9io/sFv2/edtx2fH+QfJ93DewHmp+4zLJW6sdaPMy8dXr7fp6dtl26tz9TICKZgGEl3r8XjWOy/qYxXbNXLAKOOVx6Wec7X0uPC3OkCAK7b7Pvu3I/Ff5r+f0z2OsP/jx0zTiVabExEZYSzZuf7dFeFKuF+4/RitqzgqJbu36+XW6Db1Ikkcf45uVDv/pmD/HvrxvzoogW2N3wL8/nQk/FvIx4AeCuY+xecwz9/6WFPn+PBeg41XNGbzD9ABKG91b5YNnP+KflqnzwU4/yZPuchyeA6e63XVH8U/Wh0Xal3X38YadY5HwME7MNh4xcnnwIEcKSkq1suxcTGSlp6ul4mIiFqDQYMuCJWclGmX6ooNGn87Fj4lu/75jK5kIXngxif+KIe+XaorzJ5ABb8kc4use+RG3b0VXSV3f/i6bH7uLqkqOaIb9bGjJndIpvUAVMoUfI9jBe2ToAs9C8J6DpT9X7wra+6fo5OA4TuhcbjjzSdktXqsaNsaY227pInn2q/YqQoiupquvudqOfDVh47Xodv0pr/doRs3eP/ksy4xXnlcdXGhbH/9Mfn2lnNk8zN/kbxVS/XrcUP37w2P3yqHvlum10X3dterp9XlpY71catWDSG7ej0G2fk53Mr3Z+rKtSt07Q5O6K4bduiejQRo5n5F+dj28oPy0xtP6G0eFJ8iiRPONV7ZUHpamgT426+oFxYW6vuWCAn3lfT+YWKzeem40LBJ8TLh/G7Gs50DwYKQlAy9XLrnJ1n/v7c5ygNuKCP2Rm/jMmFqj7LhCo1gNDzwb6NM4n3wfvhsKLM7F87X+8edXj17SnJKd72MmRPKS8v1cksc+u5zHeBqaULEw2u/ku/vuFR+vOcqPczC/Ow4/yD53ubn7rYHDlQDM2n8uW7PQ3mrPtP5S/K++VS/B6A8Y0gUHkfQzAwkhnTvre9NuFKcNPkC3cBFcGD1g3N0oMBM/IdG4poHrpPiHRv1Orgq3dz5q6iwyFiyc/27o6F7+5fXjpcf7vqVo8cVuvTjsZW/n6W/lyvfsAjxDbZPmVdVVqzPQa2BISZJ6jxgBgx2qPOD+ZuCfbP1hftk75I39DkFvzv4/bFqbLeHA/99X7697Re6kY/vb+5TfA4cK/i9w7HhGxqhp6V1B79rNj9/dXzOd5QNnP82PX2HPhdAoDpPokeBq8QJ56jzhn1q36Id6xv9Nm556QH1Gar19mpOa/arJxA0xDCF1jqUd0gnQ4SQ4GCJj4vVy0RERK3BoEEXhEoOKjuApIAYj+0MV5f3Lv2XvcHvAVztPLhiSaMr8Kik5a+1j3VGwwJdPNsTGhNetg4oYqqFWr5vl27AYFu4qsjbpyuQJlR+Mf5WN0Dy9kvWey9Zvq5450ZH4ya850A93tYZKoT5a7+2fC3g8UPffy61lUd1gwq9QdobGkb6irjaBsWZm2Xvf6zHgqPM4Eox1kPwwmre9tjYWPH19dXLubktC+ggYDD7voHSY2C4VByt0cMUfP1sMuni7tJzUOddwfXy8xObj59ePnpgT6MybkIAxrlMmNqrbDRSp47RjxdK2d7GY+bx/oVbV+sgkgljmUeMHK5vl156idx5918cU67t2LFDtv/U8lkoSnb/pPNstDQhIs4JTeVuwLYwG0K4Co6r4a7Q6KtQ29OEhj/UHatUy/bHsR3MddB7yLmMxp12pvir98X77PlggVRazAiAfZ236lMdiPDk/PXue+/JwQMH1K6pk+zsbFnwWtcf4+0fHqOHl7VVNHqbxCXp5ZJdm+XQd43zguBcUrbfXl4DElIkLK2PXm5vyEnSVK6VI+u/cZQLnEObCo4Xblmtg7fOUC4K1HsAhmCYQUVn0YPGOAIo+5a+0+i8UaSOz6Lt64y/Os+RwkI9pADiEuJl6pS2zXxQUmoPGviq82RSUucGdImI6OdFtersXcep60AlxxxvWqgqLlbJ0tBt3aoibaWquEBX9K0U79ygKuZVumGBsfHtCQ0KXOFqd/X1umHjroHoKqRbuq4EQ3N5FUqytup7jPHFWPmmoDKL3AbIdWDecOWrrs7eFT4wrv2DBuga7xdub6ShYusukR4eP5qzWy9jfT/VqHIVFGzPiVFXWyfHqtxf9bZy4U29JblnqJ4dYfHzu2Txy5l6GcGEGbPT9b2zWdf2kMc/miB3vTpa4rt7lovDE/VVVVJXU6WXwzIGtLi3TEeVjQp1bHqaoA+unTNb5s2bp29zrpsjKcnJuofBl19+JfOfetpYq2VQBtDtHLOWuLvi6gk05p3LOG7msYer4Lga3hwM79BUg72m0lh24uXjpwNtelkdV0hqh9+mY0cOS9GODfpxK+iuj277npy/1q5ZI9dcM1umT5sh1//2hk5NgthayA3R1NVu7Itxz3wsk15b0eCGpJjO0DML2xdlAeXSKjCG8oKAAvgEBNmHlnUCDLdyLlv+6hiuq6nWz+H3wxyeYcU8Jl0h6ICAE8qFa7AMuXyCEu3HPGYZKdmxXi+7Ktq+Vm+vzoTZa378cbXU1taKr4+PXHnVlTJ//nyZOXOGDij27t2wR05zMIUj+Kj3io5xvx2JiIiaw54GXZCfqkShsoMraJWHrceZO1+law66tR5zM0UXrkbj6h+gAdye0OW+uez9rYEGS9lez7t8BiYki7fRIEEiO9cKtvMNCfM01WAxk9c5w2Np518nY55cJBP+vlxOe+QtGXnfa47bgBsfciTV6giBsd1U5d9+ZR2J6Ky+g3lD4jlw1+Mj0hjTXasqxiXFnu+nwWfESs8h4aoM1svGFYdl/deHZPO3+bJ6WZ7Ob4BgwsU391LbquMDkshYXmZM0YmrkiMfeF3633CfHjtv1bvCVXuWDWfIwN5UAMIT/v7+EhsTK2FhrQ+8HV7zlU6IiEBH3GjPr1oigenQO56VCS99IWc8+0mDMo4bkiF2FPRc8DUS0GGfjnnyfcv9gRs+i06QqDS3T05GNRXlTebj8JQZvK1XvykYWuIOflPQUMbvT0f0lDJhJoxRDyyQCa8slzFPLWpUvpCvpTkICrRmyJt3YJB4+9sDlzUVRxv0+HGG7YTt1dle/fvf5aOPlkhJaalu7A8Y2F9u+8NtOqCI+5aoMaZv9MI5C/PjEhERtRKDBl0QrrxoqvKGqcvaqg5XY91cke5ICGzU11l35W8LTN+GRG+e8o+MdzS02wJXsTFjQdp519iz9DfRbbajdETvhZbqf3q0BAT5SFlhlaxedrzS/snrWZK1sQhtauk1PErGnWvvDu2srr5eFevmkwB6CmUM46D10AP13rgyG3faVBl0yyO6sTv+haUy6LbH9RVMK+1VNlx5OnTIdN+998vZZ03Tt9tvv1M2bNioK/pmg8Hbg7HVVtAbqaUJEZGAddgdz0hEn6GOq/+dyXkc/6kO5zmc79xBjzMkTEUCPyTyQw4LK47cMseOSXnuHr1sxbmh7GPMetOecM7EzASYncN51pfOpAOvfvZjHj0N3MF2wvbqbKGhoTpYaCZCJSIi6goYNKAOVWlcCULjQ2eqPsGQfA0V7OZuax6+XvKNcbGmjEtuclwBwxhtZNj/5paZOuGVecNrkem9o7mbccHq5m4Whpz99goz8hogv4Gn4lPsV+nKS6plf+bxruYIBnzyj2w9qwLyG5x5SaoMHGsPgIVGGnkHSqvlcE7bA2HO0DBe9/ANsnH+n3Qys8r8g46rs0jqhhwQw+54rtnpEttSNtrT+nXr5MknntTj7yElJVn69Wvd0AJoSUJETFXafdaV+njFlVyMF0fCwa/mTGxQzpEwsjNgyIjVPrC6Zb37ovGqn4/qkiKpNnprYfo/3/BIvWxCbzTk60COiYrDOeJV134BuY6A3k+J42bqIRcYsoKElj/cdUWDsoWbmT/kVHTN1VfL2DPG6PNyeXm5LF60WH5z3W91QPHG391orOWZyCh7eamurpaCgrb1fCIiolMbgwZdkKNbs83bkdugLXBVxdMkaO3tKJLx1dsrssHJPfR9ZztWmKcb2YCeD6hgN3dDAkrnnAlIfIcEeICGDBpSyLDv2rXVJyBEbfCOO6wqDhlDUtS/oYdpWHx215u7WRiQxwD5DMDHp326ruZklsnXi/dLdVWdBIX6yIyr0yUhLVi6ZdivWuZktnwWAE+gxwGuqONq63e3XyIrbpiqZwfR0xuq8ocp3FKmXd5oyEJ7lI2OgMSU+/YbSQJ9fMQ/oPW9IdAAK8verrucIyGil3fDfBPOMIsKhtcgeequt5/R04oiE73rGHhsz47i3FBGt5WjB/dZ7gfXW1uHg3RFmJ4Sw7wAUwxiOtfWcARv/f0lOMF9Ek/MWOBlXP3viO0ZP/osPR0nAgab1bFqTp3pDL9VZk+AjoDgCnrfQUBs495QJmwnbK/OFBoWJgMHD9K9jKrUZ3xr4UJ5/vkXZM8e971DmhIUZK8/YChZVZU9TwQREVFrMGjQBVWpyhrGlaLrZkCsdcZjdPP0dMwprlAhE7kVVEJRGQXXylt7KN6xQaor7FejcZXeMfSiE1Xk7pfaans309DU3nrbtRQS32FcOBRuXeO20RiUkOzYnh1BV3hVIxdlIyS1bdnNd2dnS6WRzyIxKVHft0RwmK8kG8EAZ98uOSBrvlCN8bp6iUkKlCtu7ycxCYFSebRGdq47PmVcU12DrWAKNHe5OVwhSIJkmZhKzbxqGRAdr5OsOWuPstFRkOUfEDSIiW79dGn2gMr3+pyCpI8Bce6zqJvJBJE8tdDNFJVo1PlHt34quOagoVxdZs/6jvNFYHz7ZH0fPmKE/OMfC+TTz/4jL738op7WsqvDvsOUgAh8YRhNeK8hxjMtY+aWQUAAgQF39GwFNm9dVvA71J4wXal/TLxexnnMTLroCr9V+M3qKLUVR9X5+6he9g0N15/LinMApbNERUY6hiUcPJgrny1tPMtFS8TG2o/TiooKPWMIERFRazFo0AUhyV9Npb1SE9l3mGUvgaDkdI8zxSN7fnivwcZfDaESisooKomYxrApSGs3LTxS3uvVX97I6CtDjUZ0U8yrnBAYl6Tnx+5sZTmqcZy7Ty+HpveT8H7D9XJL6LG3GKzfBDQ4Y0dO9nicLrY5GgPNVeSdYXuiQQcYox5kZP5vjT1790lZmT2gk5CQqK9yeSJvn71shkT6ycgp1mVw6du7da8DbDIMZ7D5eMmuDcWy8ZvDxhrHr2Q29f2drzoiL0d1C3MFILiD4QrutEfZ6Gg2m02Cgtp2Zd9MiIheBFEDRhqPNuZJ0CRywKh2T5rqDA1lHbBQxwYadAmnn2080zYXX3SRJCYl6e2Znp4us6+91nimayvYsMqRvDB6yBkSnNx4CsHmoIFuziaAJIRW+xnHGmZZAOTSMROMuuOcpBE5XppjT8bafHLUmGHjxC+y9UGy5lQePqgTqIK/+ndCMwboZVcRfYfr7XWiYEgBZlNorTRVxsPC7D2rioqK1fm+/S8KEBHRqYNBgy7InF8dglMyJHbUJL1sQoWv+9mXub1C4grdQRPHn6PHdzvD9H0xw8frZTQo8tev1MvupAcEypy4RAn29pY4X1+ZHZcgoc1UqtAAyFn2nqqE2qdF6zblIj3G3AoyfPe4+IY2NYStoLGJucFRwUVvgYyLr3cbcMG2jRk+QXpdcavxiF3ZgWxHUsrI/iMabUtIPe8aXdE0uV7VdlVVeFhPF4jt4km2cMD4/YKNq3SDCsnNMi67xfKzAIIX3c68UFLPvdp4pCH0NDh8yN5wj4gIl9TunjUEN608LEfLalTjy0uGToyVsbMad/EtK66WdcsP6WEKcKyiRtb8t2Gm8+LMLbpRj++PYIvV90DZN7tkVxw64Kjsm5DlP2HcTLeBGpQpHEOAbY0pGp21R9k4GTgnRAzt0U9sPtbdv83eRgg06mkPXWDbZPzyBse+QkAHieXa26Ef/mvvVeLlJQkTztXlwx2cL/rMvqPZ80aEMVuIyfXvrqokc7McWr1cH/NonPe68g8tnsq2QO37SnX8AAIDcadP1cvOus+4XEKS7b0vKlQ50MlFm4CeQjivA6Y7dXceMiFIaCYIRZkxAxTO8JuERJxmYx3DiXxC27fXAX6TcA7FMY/PnHL2Lxt99oj+I9W5fJjx18mpT+/eEh5u33a7du1qUwCCiIjIe+LU6fev/q7jknpRyyF7NbpQRg0+Xbz9AiRqwCjxC4vUXUzRTb73NX+W6GHjdCUSDRlcsS5Yt1LKc7KMd1CNpYAgSThjhp66DJUkdCfGFSZ0+7WpBn/SxPOkp2pw4n1RecpZ9q7kq/doSg//AJkZcTxQgWtG35SWSLFxtckdNPRsPr66twPGQmPcdEhKTz2u1ScoWF85Sz9vtvS+4g8SmtpH8n74wjGO11msarDhdXVVxyR31aeW67hTnpMt4b0Hq0ZPou7ynDBmuk4MV1tZrruohvYYIGnn/Vp6X/0/kjh+lt4muSs/Nl4tUlNarAMC6L7rrxpUztsSr+2j9gmSfOn9of6HMal4Honk3E7bpfYbxphjm6DB44t9XFaik53paedCI6W2vFTvP2fIE4GygavzQfEp+t/1CQrVU2fitZGqwpt+4XXS66r/kdgRE6SqMF/y135tvLqhhMQEGThggE66lZubJ5s3W3cZdoZEhuExftItI1T8/L2l19AI6TM8SjXc7UMWeqvli27qJcPPjBcfX3tcEvcR0QGyZnkeiq2GQFVEnyGqAZGkhw7EjpyoM8XXS52eS73HBb+RlOmX62MAwYXdHy6w5yhwEtl7iPT59Z8ledplqhEyQDWmQvXxgO2HxId9Z98pQYn2MdxoNOcsX6SXnbW1bJjwbyaMna4a0v4674G7be6pyZMnSUpKih6msHbtOtm+3d5jxx18NmxHd8dHbUW5RA8fr7cnGuPg+jm91NZH2cZV54h+wx3nHVyRTTrzAulz9Z/1v4FtbC/rIsXb10rpnh369SHJPfSVYnA+J+HYR7l0/WzmMV2tyn3eN/9xNEKrSwrFJzDIfs5Q5x0ENyN6DdE9sLz9/XX5SJ5ykfS84jZJ+8VsCYxOdHveMJ1xxhmS1O14gCsrM1uWLVtm/NW1Ff+0QTeoUUYRLIxTZdv5mEdZ73npzXq6XsCx5VxGdS8DHx+9D9CzDL2UzH0bEJsoGZfeJInqNwHBNxxrWe++pI61pqe1xfktLGOgDurhnIj9eOxInj5mcCwgmSbO8c4wuwk+A/Zp9CD8vql11HGG/Zk662rJuORGPXOGo3ypcyfKkZmTAcyyZPW7ZzLLIXoxYThZ8c6NxjN2OOajBo3Wxzu2p+tvY4balugZgfM4AhjtcTx7IiIiQqZMOVOCQ4LlyJFC+fjjxucZT5173rnSr19fnRvh4yVLZOfOpnsSEhERNcV70lkz7l/9XdONRep85QeyVQXOW8JQaVaVL1zJSZx4rmqUTNONrOrSQjn8w391I7u5oEHR1tW68oYx22ikJk36hW4Ao+KGFhwqQ1nvvOC+cWsIVJ9nvKoQ+utupiL7VGXkk8IjUmW2AptQvGOjrrSGpffVVzlR0cR3wWfBfUj3nrqx1VRAoC1BA3w3ZNYPTk7XDX9897Ae/XVDC58hfvQUVdHMsG8TBZXU3JWf6GW7eilVlWhUVnWlODzKsS3xWlyBRTOsYNN3quFfrBqd8aqVhnH1X6uKuZt5wNV6CBigEoygiv48ah/jPfX7qvcv2PJ9o++JfVmw4VvVSB6kK724Qo7p8czXIkM+uo+bUwmW7v5JCtz0IjlaVi6njxkjISEh6uPWetyI2rm+SCJj/SUhNUi8fWwSoZb7nxYtwyfHS79RURIW5acr3AeyyuRIbqV+PkQ9Vl9bJ9lb7Fe8sE+Kd6zX3x/fA2U1eqhq2KnvgP2iy4TaLmjw7P5ggRxYvli/zpnZOMCVQnzn6MFjHdsPDSM0rFDGMaxj+4J5jt4iztpeNuy6etDg2JHDEtlvuG6gmVw/JwJ8uLoblt5flx/zvIMbZlbANkDyz4Nff6SOxQy9TvmB3aphtlq/vr2CBlD003q975GAFOdAfG7sC7N8oBHth3HnqpyhoZurXo9ggzuFRUUyoH8/CQ4Olt27d8vzz/2faph5fg45kVBGj2z5Qe+XgKi4Rse8o6wr6AGwc+F83YB3Vpq9XZfRkJReDfet2pbB3dJ1I9k81g5+9aHxqqYdy8+VqMFjdDAAgU/zmMENvadcg2tl+7PUet3U+T9dH7P4HTL3Z6j+bfCVY+r4Qu+fMPS+Ur85pVlbHEEpaI+gAbZn+d5daruN0tvN+XyuhyWok/n+z99R72P/XTrZggYYanbFry6TyMhIycvNlTfffMsxFI2IiKg1jJ4GDBp0Rag0I79BCJLwhYTpSh0qx0hqtuXZu/VVmshBo3WjqKmgAcazbn35IX0VNiAuSVfAcbUUY72z339Jst99Wepqms+sXFRTIyWqsjU4KFiK1OtfyDsge1UjwDP1UrRtrWqcLdeVRVxF9w4I0BV+XElHQ7tw8w+y4635unJrpS1BA0BF8dD3y9T7b9OVZ2wPb3TTxmdQ30d/hm1rJPNfz8mexa/pz+UM44rzvvtcvy4wJtHeKEftUsH43v1L/y0733hCD0uIUBVbVFiLVGMVXX3dQTClqqRAvZ/aL+p97eN+7Zr6nggc5K74WCryD+irwJhTHRVuQBJA5D0oWLtCdqrteeC/uLpuHdhBo6lP3z6SlpYm/gH+smXTZskvaD7ZIOJEW78vkH07SiUiLkACQ3x08ACbo/pYneTuKZfPFu6WxS/tkvLiat37wD/AW6KTgiR7c7GUFtqHCejv8bX9ewTFJjnKOf4BBFsKNq6SrS/cKwVupjjEtkVQRNT+Q68V7BNsd0ADqEI1gnd/+Lrsevtveh+509ayAe0dNOjdq7f0H9BfvNT/srOzZN26dcYz1poLGqAMePv56XOGWc6sPmfhltXqvLOjwXkH8J3L9vykziUPqmN5tR4yoK92q38P0zri/dszaAA4dx1atVQ3kvU5Q21bR/lQ65btz9TH3U8LHtVDMJpy8OBBWbz4A1m48C1Z8tGSkyZgYELAK++bT/XsLQFR8fqKvOOYV2UdPZCy339Zdrz+uJs8Hup3YsO36vXb9NV159fjOET53vbKg5K/+iv9mCcw5CB/9Ze6N49/VKzj2APX3g6A4yx/zQq1//PVa9LU71Tw8fKljrMi1cDf/NzdeuhW9IgJ4qN+K/Bv4HOb2iNoAHjf3G8/a/y7eDhHlafHpCR7q+N4birw2p4QJJwydYoEqN/GtgQNxpw+WqaedZZOorriqxUnTY8aIiLqurzuffTp+hfmP2r8SUSnmgkTJsgf/3ibqqgGyjvvvCOvvvqa8QydSBdccIFc95s5euhIoWrgLl36uazfsF5qa+t1PoqiIntyPCJqf/Gjp0qfa+8UDLPAcI29nyw0nuk406ZNk5tvuUn8/f1l1apVct+99xvPtMxdd98lkyZNlPz8Arnvr/fKzl0cmkBERG1jD/ET0Snr66+/lg0bN4rN2ybjx4+ThATPZuWgjrV8+XLJyrJPkxYZFSWXXnapzJs3T+bOfUgmT3afGJCI2g75gzCUDslSKw7tNx5tX4GBgTJ0yBAZMXK4XHrpJXKZOsYRMKivr5ecHPezvjRl6LBhMlzd8B4//vgDAwZERNQuGDQgIln03iJ95To+IUGmz5huPEonEvbH3IfnyqeffiaFhYVSU9N0zhEi8hySSrrOmmBCjhrkOMDwpMojh/UwmY7Qf0A/ue+B+3QwcM51c6Rbsj3fSF5enixv5ZCC6dPPltCwUMnNzZX31XmdiIioPXB4AhFps2bNlLT0NCk8UiiLFi2WiorGSQOJiH4Ous+8UtIumCOlmVt1rp2inRv045F9h+upgRFUQI6D3R+8JnuWvKGfa2/oYXDPPffo5Jy16t8qP3pUtmzaJP94403Jymycq6E5sTExetaEwKBA2bB+g6xcyZmxiIiofTBoQERERKcUBA16XHy98VdjSPyJxJNIimiV+JSIiOhUwuEJREREdEopWLdCT52KmSYw+4QJyyXZ22TzM3+R7a/NY8CAiIhIYU8DIiIiIiIiIrLEngZEREREREREZIlBAyIiIiIiIiKyxKABEREREREREVli0ICIiIiIiIiILDFoQERERERERESWGDQgIiIiIiIiIks2L/EyFomIiIiIiIiIjmNPAyIiIiIiIiKy1KWCBhERETJ02DAZMXK4pKamGo8SERERERER0Yngdd+jf6t/fv48488T64ILLpDrfjNHfH199d81NTWSmZklCxa8LmvXrNGPEREREREREVHn6NLDE3x8fKRPn95y6623sOcBERERERERUSfrUkGDRYsWyayZ58iM6TNl3iOPSs7+HP14bGysjB07Vi8TERERERERUefokj0NamtrZfny5bJ06ed6iAJ6HERGRhjPEhEREREREVFn6NLDEw4cyJGqqiq9HJ8Qr++JiIiIiIiIqHN06aBBWXmZ1NfXG38RERERERERUWfq0kEDIiIiIiIiIjpxbOJlLBEREREREREROWFPAyIiIiIiIiKydNIEDcJCw40lIiIiIiIiIuoMXTpoUF5aLpWVlXo5vUeaTJ48WS8TERERERERUcfznnTWjPt/XLXS+LNryS8okIEDBkpKSrL4+fnJ6NGnSd9+/cTm7SVRUZHi5+snxcXFxtpERERERERE1J66dNAANmzYIHFxcRIfHy8BAQGSnJws48aNk6lTp0psbIx8ufxLY00iIiIiIiIiak9dPqdBWFiYxMTE6J4GRERERERERNR5unzQ4IYbbpCBAweIt7e3FB45Iq8veF2uvPIqOfusaXLfvfcbaxERERERERFRe7N5eXkZi11P3z59dAJEKC0pkWeffU7efvufcijvkH6MiIiIiIiIiDpOl+5pEBwarPMYQGZmpqxc+Y1eJiIiIiIiIqKO1+WHJ5gqjKkXiYiIiIiIiKhznDRBAyIiIiIiIiLqXAwaEBEREREREZElBg2IiIiIiIiIyFKXDhrERMeKj4+P8RcRERERERERdaYuPeViQmKC+Pr46uWc/Qf0PRERERERERF1ji7V0yAiIkKGDhsmI0YOlzlzrpWZM6aLzdsm1dXVcvjwYWMtIiIiIiIiIuoMXSpoMHnyZJk79yGZN2+eXHrZpRIZFaUfz8rKluXLl+tlIiIiIiIiIuocXTanQU1NjRQWFsqnn34mcx+eK0VFRcYzRERERERERNQZvB7432frn3tirvEnEREREREREZEdp1wkIiIiIiIiIksMGhARERERERGRJZtI151ykYiIiIiIiIhOHPY0ICIiIiIiIiJLDBoQERERERERkSWbF0cnEBEREREREZEF9jQgIiIiIiIiIksMGhARERERERGRJQYNiIiIiIiIiMgSgwZEREREREREZIlBAyIiIiIiIiKyZPPi9AlEREREREREZIE9DYiIiIiIiIjIEoMGRERERERERGSJQQMiIiIiIiIismQTYU4DIiIiIiIiImqMPQ2IiIiIiIiIyBKDBkRERERERERkiUEDIiIiIiIiIrLEoAERERERERERWbJ5eTERIhERERERERE1xp4GRERERERERGSJQQMiIiIiIiIissSgARERERERERFZsjGlARERERERERFZYU8DIiIiIiIiIrLEoAERERERERERWWLQgIiIiIiIiIgs2YRJDYiIiIiIiIjIAnsaEBEREREREZElm5ewpwERERERERERNcaeBkRERERERERkiUEDIiIiIiIiIrLEoAERERERERERWbJ5cfYEIiIiIiIiIrLAngZEREREREREZIlBAyIiIiIiIiKypIMGNhtjB0RERERERER0HGIFNvESCY+INB4iIiIiIiIiIrLHCnQXg27d0/QDRERERERERESAWIEOGvTs3Vc/QEREREREREQEiBXooEGPXn0kMipaP0hEREREREREpzbECBArsHkhqYEycep0fU9EREREREREpzYzRuCYNgERhDHjJxt/EREREREREdGpCLEBxAjQyUAHDczeBmMmTGbggIiIiIiIiOgUhZgAYgMmm5eXPWBgwgq/+OWvmOOAiIiIiIiI6BSBGABiAWbAwOxc4PXYs3+vV/Qf9ep/xoKWuXO7vuXs3SPFRYVSV1dnf4KIiIiIiIiITlo2m03CIyKlW/dUyejVV9+MOMHxgIGXWnrsuVfrpR7/dwocmLGDBo8Zyy7P4Vn93wbPuz5mv3e8r/PzLusYqzgeBzxnvsZx5/K8seT8sgaPmxq+ruGC499QnNc7viLWMe6dnzeZ7+PynMWajnWdWb6n4u5xZ82t48l7qLWMe8949JbtyLPv0IzO/tBEREREdHJx6YndGVx7f7entr21Zy9u6vN7+t1c17N8nes6xr3J8Zpm3qvBX02sqxvOzn87rdrwPe3LDV6rFxs+7nj++Gr63zj+uLGe/q/z+sfX0Z/JvmC/Mx8319XvZyw5Pab/61hX3+kF8/0c6zruzMe95P8DTmVKvfRD1ToAAAAASUVORK5CYII=;" vertex="1" parent="1">
          <mxGeometry y="380" width="1037" height="409" as="geometry" />
        </mxCell>
        <mxCell id="Z_vTWsY7vMFAYbMgy-K_-36" style="edgeStyle=orthogonalEdgeStyle;rounded=0;orthogonalLoop=1;jettySize=auto;html=1;exitX=0.25;exitY=1;exitDx=0;exitDy=0;entryX=0.5;entryY=0;entryDx=0;entryDy=0;" edge="1" parent="1" source="Z_vTWsY7vMFAYbMgy-K_-4" target="Z_vTWsY7vMFAYbMgy-K_-9">
          <mxGeometry relative="1" as="geometry" />
        </mxCell>
        <mxCell id="Z_vTWsY7vMFAYbMgy-K_-43" style="edgeStyle=orthogonalEdgeStyle;rounded=0;orthogonalLoop=1;jettySize=auto;html=1;" edge="1" parent="1" source="Z_vTWsY7vMFAYbMgy-K_-4" target="Z_vTWsY7vMFAYbMgy-K_-10">
          <mxGeometry relative="1" as="geometry" />
        </mxCell>
        <mxCell id="Z_vTWsY7vMFAYbMgy-K_-61" style="edgeStyle=orthogonalEdgeStyle;rounded=0;orthogonalLoop=1;jettySize=auto;html=1;exitX=0.75;exitY=1;exitDx=0;exitDy=0;entryX=0;entryY=0.25;entryDx=0;entryDy=0;" edge="1" parent="1" source="Z_vTWsY7vMFAYbMgy-K_-4" target="Z_vTWsY7vMFAYbMgy-K_-59">
          <mxGeometry relative="1" as="geometry" />
        </mxCell>
        <mxCell id="Z_vTWsY7vMFAYbMgy-K_-4" value="&lt;div style=&quot;background-color: rgb(43, 43, 43); color: rgb(169, 183, 198); font-family: &amp;quot;JetBrains Mono&amp;quot;, monospace; font-size: 24px;&quot;&gt;func &lt;span style=&quot;color: rgb(255, 198, 109); font-size: 24px;&quot;&gt;Open&lt;/span&gt;(dialector &lt;span style=&quot;color: rgb(111, 175, 189); font-size: 24px;&quot;&gt;Dialector&lt;/span&gt;&lt;span style=&quot;color: rgb(204, 120, 50); font-size: 24px;&quot;&gt;, &lt;/span&gt;opts ...&lt;span style=&quot;color: rgb(111, 175, 189); font-size: 24px;&quot;&gt;Option&lt;/span&gt;) (db *&lt;span style=&quot;color: rgb(111, 175, 189); font-size: 24px;&quot;&gt;DB&lt;/span&gt;&lt;span style=&quot;color: rgb(204, 120, 50); font-size: 24px;&quot;&gt;, &lt;/span&gt;err &lt;span style=&quot;color: rgb(204, 120, 50); font-size: 24px;&quot;&gt;error&lt;/span&gt;)&lt;/div&gt;" style="text;html=1;strokeColor=none;fillColor=none;align=center;verticalAlign=middle;whiteSpace=wrap;rounded=0;fontSize=24;" vertex="1" parent="1">
          <mxGeometry x="180" width="820" height="30" as="geometry" />
        </mxCell>
        <mxCell id="Z_vTWsY7vMFAYbMgy-K_-35" style="edgeStyle=orthogonalEdgeStyle;rounded=0;orthogonalLoop=1;jettySize=auto;html=1;exitX=0.5;exitY=1;exitDx=0;exitDy=0;entryX=0.5;entryY=0;entryDx=0;entryDy=0;" edge="1" parent="1" source="Z_vTWsY7vMFAYbMgy-K_-9" target="Z_vTWsY7vMFAYbMgy-K_-12">
          <mxGeometry relative="1" as="geometry" />
        </mxCell>
        <mxCell id="Z_vTWsY7vMFAYbMgy-K_-9" value="数据库连接器&lt;br style=&quot;font-size: 22px;&quot;&gt;" style="text;html=1;strokeColor=none;fillColor=none;align=center;verticalAlign=middle;whiteSpace=wrap;rounded=0;fontSize=22;" vertex="1" parent="1">
          <mxGeometry x="310" y="80" width="150" height="30" as="geometry" />
        </mxCell>
        <mxCell id="Z_vTWsY7vMFAYbMgy-K_-49" style="edgeStyle=orthogonalEdgeStyle;rounded=0;orthogonalLoop=1;jettySize=auto;html=1;entryX=0.5;entryY=0;entryDx=0;entryDy=0;" edge="1" parent="1" source="Z_vTWsY7vMFAYbMgy-K_-10" target="Z_vTWsY7vMFAYbMgy-K_-45">
          <mxGeometry relative="1" as="geometry" />
        </mxCell>
        <mxCell id="Z_vTWsY7vMFAYbMgy-K_-10" value="初始化时调整配置" style="text;html=1;strokeColor=none;fillColor=none;align=center;verticalAlign=middle;whiteSpace=wrap;rounded=0;fontSize=22;" vertex="1" parent="1">
          <mxGeometry x="485" y="80" width="210" height="30" as="geometry" />
        </mxCell>
        <mxCell id="Z_vTWsY7vMFAYbMgy-K_-38" style="edgeStyle=orthogonalEdgeStyle;rounded=0;orthogonalLoop=1;jettySize=auto;html=1;exitX=0.5;exitY=1;exitDx=0;exitDy=0;entryX=0.5;entryY=0;entryDx=0;entryDy=0;" edge="1" parent="1" source="Z_vTWsY7vMFAYbMgy-K_-12" target="Z_vTWsY7vMFAYbMgy-K_-37">
          <mxGeometry relative="1" as="geometry" />
        </mxCell>
        <mxCell id="Z_vTWsY7vMFAYbMgy-K_-12" value="引入驱动+创建连接" style="text;html=1;strokeColor=none;fillColor=none;align=center;verticalAlign=middle;whiteSpace=wrap;rounded=0;fontSize=22;" vertex="1" parent="1">
          <mxGeometry x="260" y="160" width="250" height="30" as="geometry" />
        </mxCell>
        <mxCell id="Z_vTWsY7vMFAYbMgy-K_-56" style="edgeStyle=orthogonalEdgeStyle;rounded=0;orthogonalLoop=1;jettySize=auto;html=1;entryX=1;entryY=0;entryDx=0;entryDy=0;" edge="1" parent="1" source="Z_vTWsY7vMFAYbMgy-K_-37" target="Z_vTWsY7vMFAYbMgy-K_-41">
          <mxGeometry relative="1" as="geometry" />
        </mxCell>
        <mxCell id="Z_vTWsY7vMFAYbMgy-K_-57" style="edgeStyle=orthogonalEdgeStyle;rounded=0;orthogonalLoop=1;jettySize=auto;html=1;entryX=0.5;entryY=0;entryDx=0;entryDy=0;" edge="1" parent="1" source="Z_vTWsY7vMFAYbMgy-K_-37" target="Z_vTWsY7vMFAYbMgy-K_-44">
          <mxGeometry relative="1" as="geometry" />
        </mxCell>
        <mxCell id="Z_vTWsY7vMFAYbMgy-K_-37" value="DSN+Config" style="text;html=1;strokeColor=none;fillColor=none;align=center;verticalAlign=middle;whiteSpace=wrap;rounded=0;fontSize=22;" vertex="1" parent="1">
          <mxGeometry x="320" y="240" width="130" height="30" as="geometry" />
        </mxCell>
        <mxCell id="Z_vTWsY7vMFAYbMgy-K_-42" style="edgeStyle=orthogonalEdgeStyle;rounded=0;orthogonalLoop=1;jettySize=auto;html=1;entryX=0.098;entryY=1.333;entryDx=0;entryDy=0;entryPerimeter=0;" edge="1" parent="1" source="Z_vTWsY7vMFAYbMgy-K_-41" target="Z_vTWsY7vMFAYbMgy-K_-4">
          <mxGeometry relative="1" as="geometry" />
        </mxCell>
        <mxCell id="Z_vTWsY7vMFAYbMgy-K_-41" value="DSN" style="text;html=1;strokeColor=none;fillColor=none;align=center;verticalAlign=middle;whiteSpace=wrap;rounded=0;fontSize=22;fontColor=#0066CC;" vertex="1" parent="1">
          <mxGeometry x="230" y="350" width="60" height="30" as="geometry" />
        </mxCell>
        <mxCell id="Z_vTWsY7vMFAYbMgy-K_-44" value="mysql.Open" style="text;html=1;strokeColor=none;fillColor=none;align=center;verticalAlign=middle;whiteSpace=wrap;rounded=0;fontSize=22;fontColor=#0066CC;" vertex="1" parent="1">
          <mxGeometry x="453.5" y="350" width="130" height="30" as="geometry" />
        </mxCell>
        <mxCell id="Z_vTWsY7vMFAYbMgy-K_-58" style="edgeStyle=orthogonalEdgeStyle;rounded=0;orthogonalLoop=1;jettySize=auto;html=1;" edge="1" parent="1" source="Z_vTWsY7vMFAYbMgy-K_-45" target="Z_vTWsY7vMFAYbMgy-K_-50">
          <mxGeometry relative="1" as="geometry" />
        </mxCell>
        <mxCell id="Z_vTWsY7vMFAYbMgy-K_-45" value="&lt;div style=&quot;background-color: rgb(43, 43, 43); color: rgb(169, 183, 198); font-family: &amp;quot;JetBrains Mono&amp;quot;, monospace; font-size: 22px;&quot;&gt;&lt;span style=&quot;font-size: 22px; color: rgb(255, 198, 109);&quot;&gt;Apply&lt;/span&gt;&lt;span style=&quot;font-size: 22px;&quot;&gt;(*&lt;/span&gt;&lt;span style=&quot;font-size: 22px; color: rgb(111, 175, 189);&quot;&gt;Config&lt;/span&gt;&lt;span style=&quot;font-size: 22px;&quot;&gt;) error&lt;/span&gt;&lt;div style=&quot;font-size: 22px;&quot;&gt;&lt;div style=&quot;font-size: 22px;&quot;&gt;&lt;span style=&quot;color: rgb(255, 198, 109); font-size: 22px;&quot;&gt;AfterInitialize&lt;/span&gt;(*&lt;span style=&quot;color: rgb(111, 175, 189); font-size: 22px;&quot;&gt;DB&lt;/span&gt;) &lt;span style=&quot;color: rgb(204, 120, 50); font-size: 22px;&quot;&gt;error&lt;/span&gt;&lt;/div&gt;&lt;/div&gt;&lt;/div&gt;" style="text;html=1;strokeColor=none;fillColor=none;align=center;verticalAlign=middle;whiteSpace=wrap;rounded=0;fontSize=22;" vertex="1" parent="1">
          <mxGeometry x="500" y="150" width="290" height="50" as="geometry" />
        </mxCell>
        <mxCell id="Z_vTWsY7vMFAYbMgy-K_-50" value="gorm.Config&lt;br&gt;Option实例" style="text;html=1;strokeColor=none;fillColor=none;align=center;verticalAlign=middle;whiteSpace=wrap;rounded=0;fontSize=22;fontColor=#0066CC;" vertex="1" parent="1">
          <mxGeometry x="750" y="330" width="150" height="50" as="geometry" />
        </mxCell>
        <mxCell id="Z_vTWsY7vMFAYbMgy-K_-73" style="edgeStyle=orthogonalEdgeStyle;rounded=0;orthogonalLoop=1;jettySize=auto;html=1;exitX=1;exitY=0.25;exitDx=0;exitDy=0;entryX=0.75;entryY=0;entryDx=0;entryDy=0;" edge="1" parent="1" source="Z_vTWsY7vMFAYbMgy-K_-59" target="Z_vTWsY7vMFAYbMgy-K_-62">
          <mxGeometry relative="1" as="geometry" />
        </mxCell>
        <mxCell id="Z_vTWsY7vMFAYbMgy-K_-59" value="&lt;div style=&quot;background-color: rgb(43, 43, 43); color: rgb(169, 183, 198); font-family: &amp;quot;JetBrains Mono&amp;quot;, monospace; font-size: 22px;&quot;&gt;&lt;div style=&quot;text-align: left;&quot;&gt;type DB &lt;span style=&quot;color: rgb(204, 120, 50);&quot;&gt;struct &lt;/span&gt;{&lt;/div&gt;&lt;div style=&quot;text-align: left;&quot;&gt;&amp;nbsp; *&lt;span style=&quot;color: rgb(111, 175, 189);&quot;&gt;Config&lt;/span&gt;&lt;/div&gt;&lt;span style=&quot;color: rgb(111, 175, 189); font-size: 22px;&quot;&gt;&lt;div style=&quot;text-align: left;&quot;&gt;&lt;span style=&quot;color: rgb(169, 183, 198);&quot;&gt;&amp;nbsp; Error        &lt;/span&gt;&lt;span style=&quot;color: rgb(204, 120, 50);&quot;&gt;error&lt;/span&gt;&lt;/div&gt;    &lt;/span&gt;&lt;span style=&quot;color: rgb(204, 120, 50); font-size: 22px;&quot;&gt;&lt;div style=&quot;text-align: left;&quot;&gt;&lt;span style=&quot;color: rgb(169, 183, 198);&quot;&gt;&amp;nbsp; RowsAffected &lt;/span&gt;int64&lt;/div&gt;    &lt;/span&gt;&lt;span style=&quot;color: rgb(204, 120, 50); font-size: 22px;&quot;&gt;&lt;/span&gt;&amp;nbsp; Statement    *&lt;span style=&quot;color: rgb(111, 175, 189); font-size: 22px;&quot;&gt;Statement&lt;/span&gt;&lt;span style=&quot;color: rgb(204, 120, 50); font-size: 22px;&quot;&gt;&lt;br style=&quot;font-size: 22px;&quot;&gt;&lt;div style=&quot;text-align: left;&quot;&gt;&lt;span style=&quot;color: rgb(169, 183, 198);&quot;&gt;}&lt;/span&gt;&lt;/div&gt;&lt;/span&gt;&lt;/div&gt;" style="text;html=1;strokeColor=none;fillColor=none;align=center;verticalAlign=middle;whiteSpace=wrap;rounded=0;fontSize=22;" vertex="1" parent="1">
          <mxGeometry x="1040" y="60" width="263" height="180" as="geometry" />
        </mxCell>
        <mxCell id="Z_vTWsY7vMFAYbMgy-K_-74" style="edgeStyle=orthogonalEdgeStyle;rounded=0;orthogonalLoop=1;jettySize=auto;html=1;exitX=1;exitY=0.75;exitDx=0;exitDy=0;entryX=0.75;entryY=0;entryDx=0;entryDy=0;" edge="1" parent="1" source="Z_vTWsY7vMFAYbMgy-K_-62" target="Z_vTWsY7vMFAYbMgy-K_-67">
          <mxGeometry relative="1" as="geometry" />
        </mxCell>
        <mxCell id="Z_vTWsY7vMFAYbMgy-K_-62" value="&lt;div style=&quot;background-color: rgb(43, 43, 43); color: rgb(169, 183, 198); font-family: &amp;quot;JetBrains Mono&amp;quot;, monospace; font-size: 22px;&quot;&gt;type Config &lt;span style=&quot;color: rgb(204, 120, 50); font-size: 22px;&quot;&gt;struct &lt;/span&gt;{&lt;br style=&quot;font-size: 22px;&quot;&gt;    &lt;span style=&quot;color: rgb(128, 128, 128); font-size: 22px;&quot;&gt;&amp;nbsp; // &lt;/span&gt;&lt;span style=&quot;color: rgb(128, 128, 128); font-family: 宋体, monospace; font-size: 22px;&quot;&gt;日志输出的配置&lt;br style=&quot;font-size: 22px;&quot;&gt;&lt;/span&gt;&lt;span style=&quot;color: rgb(128, 128, 128); font-family: 宋体, monospace; font-size: 22px;&quot;&gt;&lt;/span&gt;&amp;nbsp; Logger &lt;span style=&quot;color: rgb(175, 191, 126); font-size: 22px;&quot;&gt;logger&lt;/span&gt;.&lt;span style=&quot;color: rgb(111, 175, 189); font-size: 22px;&quot;&gt;Interface&lt;br style=&quot;font-size: 22px;&quot;&gt;&lt;/span&gt;&lt;span style=&quot;color: rgb(111, 175, 189); font-size: 22px;&quot;&gt;&lt;/span&gt;&lt;span style=&quot;color: rgb(128, 128, 128); font-size: 22px;&quot;&gt;&amp;nbsp; // db &lt;/span&gt;&lt;span style=&quot;color: rgb(128, 128, 128); font-family: 宋体, monospace; font-size: 22px;&quot;&gt;的具体连接所在的连接池&lt;br style=&quot;font-size: 22px;&quot;&gt;&lt;/span&gt;&lt;span style=&quot;color: rgb(128, 128, 128); font-family: 宋体, monospace; font-size: 22px;&quot;&gt;&lt;/span&gt;&amp;nbsp; ConnPool &lt;span style=&quot;color: rgb(111, 175, 189); font-size: 22px;&quot;&gt;ConnPool&lt;br style=&quot;font-size: 22px;&quot;&gt;&lt;/span&gt;&lt;span style=&quot;color: rgb(111, 175, 189); font-size: 22px;&quot;&gt;&lt;/span&gt;&lt;span style=&quot;color: rgb(128, 128, 128); font-size: 22px;&quot;&gt;&amp;nbsp; // db &lt;/span&gt;&lt;span style=&quot;color: rgb(128, 128, 128); font-family: 宋体, monospace; font-size: 22px;&quot;&gt;驱动器&lt;br style=&quot;font-size: 22px;&quot;&gt;&lt;/span&gt;&lt;span style=&quot;color: rgb(128, 128, 128); font-family: 宋体, monospace; font-size: 22px;&quot;&gt;&lt;/span&gt;&lt;span style=&quot;color: rgb(111, 175, 189); font-size: 22px;&quot;&gt;&amp;nbsp; Dialector&lt;br style=&quot;font-size: 22px;&quot;&gt;&lt;/span&gt;&lt;span style=&quot;color: rgb(111, 175, 189); font-size: 22px;&quot;&gt;&lt;/span&gt;&lt;span style=&quot;color: rgb(128, 128, 128); font-size: 22px;&quot;&gt;&amp;nbsp; // &lt;/span&gt;&lt;span style=&quot;color: rgb(128, 128, 128); font-family: 宋体, monospace; font-size: 22px;&quot;&gt;回调方法，&lt;/span&gt;&lt;span style=&quot;color: rgb(128, 128, 128); font-size: 22px;&quot;&gt;map &lt;/span&gt;&lt;span style=&quot;color: rgb(128, 128, 128); font-family: 宋体, monospace; font-size: 22px;&quot;&gt;结构包含多个 &lt;/span&gt;&lt;span style=&quot;color: rgb(161, 161, 161); font-size: 22px;&quot;&gt;processor&lt;br style=&quot;font-size: 22px;&quot;&gt;&lt;/span&gt;&lt;span style=&quot;color: rgb(161, 161, 161); font-size: 22px;&quot;&gt;&lt;/span&gt;&amp;nbsp; callbacks *&lt;span style=&quot;color: rgb(111, 175, 189); font-size: 22px;&quot;&gt;callbacks&lt;br style=&quot;font-size: 22px;&quot;&gt;&lt;/span&gt;}&lt;/div&gt;" style="text;html=1;strokeColor=none;fillColor=none;align=left;verticalAlign=middle;whiteSpace=wrap;rounded=0;fontSize=22;" vertex="1" parent="1">
          <mxGeometry x="1037" y="320" width="466" height="265" as="geometry" />
        </mxCell>
        <mxCell id="Z_vTWsY7vMFAYbMgy-K_-70" style="edgeStyle=orthogonalEdgeStyle;rounded=0;orthogonalLoop=1;jettySize=auto;html=1;entryX=0;entryY=0.5;entryDx=0;entryDy=0;" edge="1" parent="1" source="Z_vTWsY7vMFAYbMgy-K_-64" target="Z_vTWsY7vMFAYbMgy-K_-67">
          <mxGeometry relative="1" as="geometry" />
        </mxCell>
        <mxCell id="Z_vTWsY7vMFAYbMgy-K_-64" value="&lt;font color=&quot;#0066cc&quot; style=&quot;font-size: 22px;&quot;&gt;Create&lt;/font&gt;" style="text;html=1;strokeColor=none;fillColor=none;align=center;verticalAlign=middle;whiteSpace=wrap;rounded=0;" vertex="1" parent="1">
          <mxGeometry x="1040" y="759" width="70" height="30" as="geometry" />
        </mxCell>
        <mxCell id="Z_vTWsY7vMFAYbMgy-K_-67" value="&lt;div style=&quot;background-color: rgb(43, 43, 43); color: rgb(169, 183, 198); font-family: &amp;quot;JetBrains Mono&amp;quot;, monospace; font-size: 22px;&quot;&gt;type processor &lt;span style=&quot;color: rgb(204, 120, 50); font-size: 22px;&quot;&gt;struct &lt;/span&gt;{&lt;br style=&quot;font-size: 22px;&quot;&gt;    &lt;span style=&quot;color: rgb(128, 128, 128); font-size: 22px;&quot;&gt;&amp;nbsp; // &lt;/span&gt;&lt;span style=&quot;color: rgb(128, 128, 128); font-family: 宋体, monospace; font-size: 22px;&quot;&gt;对应&lt;/span&gt;&lt;span style=&quot;color: rgb(128, 128, 128); font-size: 22px;&quot;&gt; grom.DB&lt;br style=&quot;font-size: 22px;&quot;&gt;&lt;/span&gt;&lt;span style=&quot;color: rgb(128, 128, 128); font-size: 22px;&quot;&gt;&lt;/span&gt;&amp;nbsp; db      *&lt;span style=&quot;color: rgb(111, 175, 189); font-size: 22px;&quot;&gt;DB&lt;br style=&quot;font-size: 22px;&quot;&gt;&lt;/span&gt;&lt;span style=&quot;color: rgb(111, 175, 189); font-size: 22px;&quot;&gt;&lt;/span&gt;&lt;span style=&quot;color: rgb(128, 128, 128); font-size: 22px;&quot;&gt;&amp;nbsp; // &lt;/span&gt;&lt;span style=&quot;color: rgb(128, 128, 128); font-family: 宋体, monospace; font-size: 22px;&quot;&gt;处理器对应的&lt;/span&gt;&lt;span style=&quot;color: rgb(128, 128, 128); font-size: 22px;&quot;&gt; SQL &lt;/span&gt;&lt;span style=&quot;color: rgb(128, 128, 128); font-family: 宋体, monospace; font-size: 22px;&quot;&gt;片段&lt;br style=&quot;font-size: 22px;&quot;&gt;&lt;/span&gt;&lt;span style=&quot;color: rgb(128, 128, 128); font-family: 宋体, monospace; font-size: 22px;&quot;&gt;&lt;/span&gt;&amp;nbsp; Clauses []&lt;span style=&quot;color: rgb(204, 120, 50); font-size: 22px;&quot;&gt;string&lt;br style=&quot;font-size: 22px;&quot;&gt;&lt;/span&gt;&lt;span style=&quot;color: rgb(204, 120, 50); font-size: 22px;&quot;&gt;&lt;/span&gt;&lt;span style=&quot;color: rgb(128, 128, 128); font-size: 22px;&quot;&gt;&amp;nbsp; // &lt;/span&gt;&lt;span style=&quot;color: rgb(128, 128, 128); font-family: 宋体, monospace; font-size: 22px;&quot;&gt;处理函数&lt;br style=&quot;font-size: 22px;&quot;&gt;&lt;/span&gt;&lt;span style=&quot;color: rgb(128, 128, 128); font-family: 宋体, monospace; font-size: 22px;&quot;&gt;&lt;/span&gt;&amp;nbsp; fns     []&lt;span style=&quot;color: rgb(204, 120, 50); font-size: 22px;&quot;&gt;func&lt;/span&gt;(*&lt;span style=&quot;color: rgb(111, 175, 189); font-size: 22px;&quot;&gt;DB&lt;/span&gt;)&lt;br style=&quot;font-size: 22px;&quot;&gt;    &lt;span style=&quot;color: rgb(128, 128, 128); font-size: 22px;&quot;&gt;&amp;nbsp; // &lt;/span&gt;&lt;span style=&quot;color: rgb(128, 128, 128); font-family: 宋体, monospace; font-size: 22px;&quot;&gt;处理器对应的回调函数，生成 &lt;/span&gt;&lt;span style=&quot;color: rgb(161, 161, 161); font-size: 22px;&quot;&gt;fns&lt;br style=&quot;font-size: 22px;&quot;&gt;&lt;/span&gt;&lt;span style=&quot;color: rgb(161, 161, 161); font-size: 22px;&quot;&gt;&lt;/span&gt;&amp;nbsp; callbacks []*&lt;span style=&quot;color: rgb(111, 175, 189); font-size: 22px;&quot;&gt;callback&lt;br style=&quot;font-size: 22px;&quot;&gt;&lt;/span&gt;}&lt;/div&gt;" style="text;html=1;strokeColor=none;fillColor=none;align=left;verticalAlign=middle;whiteSpace=wrap;rounded=0;fontSize=22;" vertex="1" parent="1">
          <mxGeometry x="1241" y="643.5" width="400" height="261" as="geometry" />
        </mxCell>
      </root>
    </mxGraphModel>
  </diagram>
</mxfile>
